<?xml version="1.0" encoding="utf-8" standalone="no"?>
<!DOCTYPE svg PUBLIC "-//W3C//DTD SVG 1.1//EN"
  "http://www.w3.org/Graphics/SVG/1.1/DTD/svg11.dtd">
<svg xmlns:xlink="http://www.w3.org/1999/xlink" width="728.425pt" height="418.42825pt" viewBox="0 0 728.425 418.42825" xmlns="http://www.w3.org/2000/svg" version="1.1">
 <metadata>
  <rdf:RDF xmlns:dc="http://purl.org/dc/elements/1.1/" xmlns:cc="http://creativecommons.org/ns#" xmlns:rdf="http://www.w3.org/1999/02/22-rdf-syntax-ns#">
   <cc:Work>
    <dc:type rdf:resource="http://purl.org/dc/dcmitype/StillImage"/>
    <dc:date>2023-12-08T13:39:24.210191</dc:date>
    <dc:format>image/svg+xml</dc:format>
    <dc:creator>
     <cc:Agent>
      <dc:title>Matplotlib v3.7.4, https://matplotlib.org/</dc:title>
     </cc:Agent>
    </dc:creator>
   </cc:Work>
  </rdf:RDF>
 </metadata>
 <defs>
  <style type="text/css">*{stroke-linejoin: round; stroke-linecap: butt}</style>
 </defs>
 <g id="figure_1">
  <g id="patch_1">
   <path d="M 0 418.42825 
L 728.425 418.42825 
L 728.425 0 
L 0 0 
z
" style="fill: #ffffff"/>
  </g>
  <g id="axes_1">
   <g id="patch_2">
    <path d="M 51.625 339.84 
L 721.225 339.84 
L 721.225 7.2 
L 51.625 7.2 
z
" style="fill: #ffffff"/>
   </g>
   <g id="patch_3">
    <path d="M 82.061364 339.84 
L 113.013598 339.84 
L 113.013598 59.496565 
L 82.061364 59.496565 
z
" clip-path="url(#p5267aa1ffe)" style="fill: url(#h2f65c7ba62); stroke: #000000; stroke-linejoin: miter"/>
   </g>
   <g id="patch_4">
    <path d="M 185.235478 339.84 
L 216.187712 339.84 
L 216.187712 175.290592 
L 185.235478 175.290592 
z
" clip-path="url(#p5267aa1ffe)" style="fill: url(#h2f65c7ba62); stroke: #000000; stroke-linejoin: miter"/>
   </g>
   <g id="patch_5">
    <path d="M 288.409592 339.84 
L 319.361826 339.84 
L 319.361826 187.479437 
L 288.409592 187.479437 
z
" clip-path="url(#p5267aa1ffe)" style="fill: url(#h2f65c7ba62); stroke: #000000; stroke-linejoin: miter"/>
   </g>
   <g id="patch_6">
    <path d="M 391.583706 339.84 
L 422.53594 339.84 
L 422.53594 132.629635 
L 391.583706 132.629635 
z
" clip-path="url(#p5267aa1ffe)" style="fill: url(#h2f65c7ba62); stroke: #000000; stroke-linejoin: miter"/>
   </g>
   <g id="patch_7">
    <path d="M 494.75782 339.84 
L 525.710054 339.84 
L 525.710054 83.874255 
L 494.75782 83.874255 
z
" clip-path="url(#p5267aa1ffe)" style="fill: url(#h2f65c7ba62); stroke: #000000; stroke-linejoin: miter"/>
   </g>
   <g id="patch_8">
    <path d="M 597.931934 339.84 
L 628.884168 339.84 
L 628.884168 132.629635 
L 597.931934 132.629635 
z
" clip-path="url(#p5267aa1ffe)" style="fill: url(#h2f65c7ba62); stroke: #000000; stroke-linejoin: miter"/>
   </g>
   <g id="patch_9">
    <path d="M 113.013598 339.84 
L 143.965832 339.84 
L 143.965832 126.535212 
L 113.013598 126.535212 
z
" clip-path="url(#p5267aa1ffe)" style="fill: url(#h1a6f00dbd7); stroke: #000000; stroke-linejoin: miter"/>
   </g>
   <g id="patch_10">
    <path d="M 216.187712 339.84 
L 247.139946 339.84 
L 247.139946 157.007325 
L 216.187712 157.007325 
z
" clip-path="url(#p5267aa1ffe)" style="fill: url(#h1a6f00dbd7); stroke: #000000; stroke-linejoin: miter"/>
   </g>
   <g id="patch_11">
    <path d="M 319.361826 339.84 
L 350.31406 339.84 
L 350.31406 230.140395 
L 319.361826 230.140395 
z
" clip-path="url(#p5267aa1ffe)" style="fill: url(#h1a6f00dbd7); stroke: #000000; stroke-linejoin: miter"/>
   </g>
   <g id="patch_12">
    <path d="M 422.53594 339.84 
L 453.488174 339.84 
L 453.488174 132.629635 
L 422.53594 132.629635 
z
" clip-path="url(#p5267aa1ffe)" style="fill: url(#h1a6f00dbd7); stroke: #000000; stroke-linejoin: miter"/>
   </g>
   <g id="patch_13">
    <path d="M 525.710054 339.84 
L 556.662288 339.84 
L 556.662288 77.779832 
L 525.710054 77.779832 
z
" clip-path="url(#p5267aa1ffe)" style="fill: url(#h1a6f00dbd7); stroke: #000000; stroke-linejoin: miter"/>
   </g>
   <g id="patch_14">
    <path d="M 628.884168 339.84 
L 659.836402 339.84 
L 659.836402 150.912902 
L 628.884168 150.912902 
z
" clip-path="url(#p5267aa1ffe)" style="fill: url(#h1a6f00dbd7); stroke: #000000; stroke-linejoin: miter"/>
   </g>
   <g id="patch_15">
    <path d="M 143.965832 339.84 
L 174.918066 339.84 
L 174.918066 77.779832 
L 143.965832 77.779832 
z
" clip-path="url(#p5267aa1ffe)" style="fill: url(#h8dc022a8d7); stroke: #000000; stroke-linejoin: miter"/>
   </g>
   <g id="patch_16">
    <path d="M 247.139946 339.84 
L 278.09218 339.84 
L 278.09218 187.479437 
L 247.139946 187.479437 
z
" clip-path="url(#p5267aa1ffe)" style="fill: url(#h8dc022a8d7); stroke: #000000; stroke-linejoin: miter"/>
   </g>
   <g id="patch_17">
    <path d="M 350.31406 339.84 
L 381.266294 339.84 
L 381.266294 217.95155 
L 350.31406 217.95155 
z
" clip-path="url(#p5267aa1ffe)" style="fill: url(#h8dc022a8d7); stroke: #000000; stroke-linejoin: miter"/>
   </g>
   <g id="patch_18">
    <path d="M 453.488174 339.84 
L 484.440408 339.84 
L 484.440408 132.629635 
L 453.488174 132.629635 
z
" clip-path="url(#p5267aa1ffe)" style="fill: url(#h8dc022a8d7); stroke: #000000; stroke-linejoin: miter"/>
   </g>
   <g id="patch_19">
    <path d="M 556.662288 339.84 
L 587.614522 339.84 
L 587.614522 83.874255 
L 556.662288 83.874255 
z
" clip-path="url(#p5267aa1ffe)" style="fill: url(#h8dc022a8d7); stroke: #000000; stroke-linejoin: miter"/>
   </g>
   <g id="patch_20">
    <path d="M 659.836402 339.84 
L 690.788636 339.84 
L 690.788636 114.346367 
L 659.836402 114.346367 
z
" clip-path="url(#p5267aa1ffe)" style="fill: url(#h8dc022a8d7); stroke: #000000; stroke-linejoin: miter"/>
   </g>
   <g id="matplotlib.axis_1">
    <g id="xtick_1">
     <g id="line2d_1">
      <defs>
       <path id="m9bb8651d68" d="M 0 0 
L 0 3.5 
" style="stroke: #000000; stroke-width: 0.8"/>
      </defs>
      <g>
       <use xlink:href="#m9bb8651d68" x="128.489715" y="339.84" style="stroke: #000000; stroke-width: 0.8"/>
      </g>
     </g>
     <g id="text_1">
      <!-- Mental -->
      <g transform="translate(104.727996 357.477812) scale(0.14 -0.14)">
       <defs>
        <path id="DejaVuSans-4d" d="M 628 4666 
L 1569 4666 
L 2759 1491 
L 3956 4666 
L 4897 4666 
L 4897 0 
L 4281 0 
L 4281 4097 
L 3078 897 
L 2444 897 
L 1241 4097 
L 1241 0 
L 628 0 
L 628 4666 
z
" transform="scale(0.015625)"/>
        <path id="DejaVuSans-65" d="M 3597 1894 
L 3597 1613 
L 953 1613 
Q 991 1019 1311 708 
Q 1631 397 2203 397 
Q 2534 397 2845 478 
Q 3156 559 3463 722 
L 3463 178 
Q 3153 47 2828 -22 
Q 2503 -91 2169 -91 
Q 1331 -91 842 396 
Q 353 884 353 1716 
Q 353 2575 817 3079 
Q 1281 3584 2069 3584 
Q 2775 3584 3186 3129 
Q 3597 2675 3597 1894 
z
M 3022 2063 
Q 3016 2534 2758 2815 
Q 2500 3097 2075 3097 
Q 1594 3097 1305 2825 
Q 1016 2553 972 2059 
L 3022 2063 
z
" transform="scale(0.015625)"/>
        <path id="DejaVuSans-6e" d="M 3513 2113 
L 3513 0 
L 2938 0 
L 2938 2094 
Q 2938 2591 2744 2837 
Q 2550 3084 2163 3084 
Q 1697 3084 1428 2787 
Q 1159 2491 1159 1978 
L 1159 0 
L 581 0 
L 581 3500 
L 1159 3500 
L 1159 2956 
Q 1366 3272 1645 3428 
Q 1925 3584 2291 3584 
Q 2894 3584 3203 3211 
Q 3513 2838 3513 2113 
z
" transform="scale(0.015625)"/>
        <path id="DejaVuSans-74" d="M 1172 4494 
L 1172 3500 
L 2356 3500 
L 2356 3053 
L 1172 3053 
L 1172 1153 
Q 1172 725 1289 603 
Q 1406 481 1766 481 
L 2356 481 
L 2356 0 
L 1766 0 
Q 1100 0 847 248 
Q 594 497 594 1153 
L 594 3053 
L 172 3053 
L 172 3500 
L 594 3500 
L 594 4494 
L 1172 4494 
z
" transform="scale(0.015625)"/>
        <path id="DejaVuSans-61" d="M 2194 1759 
Q 1497 1759 1228 1600 
Q 959 1441 959 1056 
Q 959 750 1161 570 
Q 1363 391 1709 391 
Q 2188 391 2477 730 
Q 2766 1069 2766 1631 
L 2766 1759 
L 2194 1759 
z
M 3341 1997 
L 3341 0 
L 2766 0 
L 2766 531 
Q 2569 213 2275 61 
Q 1981 -91 1556 -91 
Q 1019 -91 701 211 
Q 384 513 384 1019 
Q 384 1609 779 1909 
Q 1175 2209 1959 2209 
L 2766 2209 
L 2766 2266 
Q 2766 2663 2505 2880 
Q 2244 3097 1772 3097 
Q 1472 3097 1187 3025 
Q 903 2953 641 2809 
L 641 3341 
Q 956 3463 1253 3523 
Q 1550 3584 1831 3584 
Q 2591 3584 2966 3190 
Q 3341 2797 3341 1997 
z
" transform="scale(0.015625)"/>
        <path id="DejaVuSans-6c" d="M 603 4863 
L 1178 4863 
L 1178 0 
L 603 0 
L 603 4863 
z
" transform="scale(0.015625)"/>
       </defs>
       <use xlink:href="#DejaVuSans-4d"/>
       <use xlink:href="#DejaVuSans-65" x="86.279297"/>
       <use xlink:href="#DejaVuSans-6e" x="147.802734"/>
       <use xlink:href="#DejaVuSans-74" x="211.181641"/>
       <use xlink:href="#DejaVuSans-61" x="250.390625"/>
       <use xlink:href="#DejaVuSans-6c" x="311.669922"/>
      </g>
      <!-- Demand -->
      <g transform="translate(98.804246 373.15475) scale(0.14 -0.14)">
       <defs>
        <path id="DejaVuSans-44" d="M 1259 4147 
L 1259 519 
L 2022 519 
Q 2988 519 3436 956 
Q 3884 1394 3884 2338 
Q 3884 3275 3436 3711 
Q 2988 4147 2022 4147 
L 1259 4147 
z
M 628 4666 
L 1925 4666 
Q 3281 4666 3915 4102 
Q 4550 3538 4550 2338 
Q 4550 1131 3912 565 
Q 3275 0 1925 0 
L 628 0 
L 628 4666 
z
" transform="scale(0.015625)"/>
        <path id="DejaVuSans-6d" d="M 3328 2828 
Q 3544 3216 3844 3400 
Q 4144 3584 4550 3584 
Q 5097 3584 5394 3201 
Q 5691 2819 5691 2113 
L 5691 0 
L 5113 0 
L 5113 2094 
Q 5113 2597 4934 2840 
Q 4756 3084 4391 3084 
Q 3944 3084 3684 2787 
Q 3425 2491 3425 1978 
L 3425 0 
L 2847 0 
L 2847 2094 
Q 2847 2600 2669 2842 
Q 2491 3084 2119 3084 
Q 1678 3084 1418 2786 
Q 1159 2488 1159 1978 
L 1159 0 
L 581 0 
L 581 3500 
L 1159 3500 
L 1159 2956 
Q 1356 3278 1631 3431 
Q 1906 3584 2284 3584 
Q 2666 3584 2933 3390 
Q 3200 3197 3328 2828 
z
" transform="scale(0.015625)"/>
        <path id="DejaVuSans-64" d="M 2906 2969 
L 2906 4863 
L 3481 4863 
L 3481 0 
L 2906 0 
L 2906 525 
Q 2725 213 2448 61 
Q 2172 -91 1784 -91 
Q 1150 -91 751 415 
Q 353 922 353 1747 
Q 353 2572 751 3078 
Q 1150 3584 1784 3584 
Q 2172 3584 2448 3432 
Q 2725 3281 2906 2969 
z
M 947 1747 
Q 947 1113 1208 752 
Q 1469 391 1925 391 
Q 2381 391 2643 752 
Q 2906 1113 2906 1747 
Q 2906 2381 2643 2742 
Q 2381 3103 1925 3103 
Q 1469 3103 1208 2742 
Q 947 2381 947 1747 
z
" transform="scale(0.015625)"/>
       </defs>
       <use xlink:href="#DejaVuSans-44"/>
       <use xlink:href="#DejaVuSans-65" x="77.001953"/>
       <use xlink:href="#DejaVuSans-6d" x="138.525391"/>
       <use xlink:href="#DejaVuSans-61" x="235.9375"/>
       <use xlink:href="#DejaVuSans-6e" x="297.216797"/>
       <use xlink:href="#DejaVuSans-64" x="360.595703"/>
      </g>
      <!--  -->
      <g transform="translate(128.489715 388.831687) scale(0.14 -0.14)"/>
     </g>
    </g>
    <g id="xtick_2">
     <g id="line2d_2">
      <g>
       <use xlink:href="#m9bb8651d68" x="231.663829" y="339.84" style="stroke: #000000; stroke-width: 0.8"/>
      </g>
     </g>
     <g id="text_2">
      <!-- Physical -->
      <g transform="translate(203.189141 357.477812) scale(0.14 -0.14)">
       <defs>
        <path id="DejaVuSans-50" d="M 1259 4147 
L 1259 2394 
L 2053 2394 
Q 2494 2394 2734 2622 
Q 2975 2850 2975 3272 
Q 2975 3691 2734 3919 
Q 2494 4147 2053 4147 
L 1259 4147 
z
M 628 4666 
L 2053 4666 
Q 2838 4666 3239 4311 
Q 3641 3956 3641 3272 
Q 3641 2581 3239 2228 
Q 2838 1875 2053 1875 
L 1259 1875 
L 1259 0 
L 628 0 
L 628 4666 
z
" transform="scale(0.015625)"/>
        <path id="DejaVuSans-68" d="M 3513 2113 
L 3513 0 
L 2938 0 
L 2938 2094 
Q 2938 2591 2744 2837 
Q 2550 3084 2163 3084 
Q 1697 3084 1428 2787 
Q 1159 2491 1159 1978 
L 1159 0 
L 581 0 
L 581 4863 
L 1159 4863 
L 1159 2956 
Q 1366 3272 1645 3428 
Q 1925 3584 2291 3584 
Q 2894 3584 3203 3211 
Q 3513 2838 3513 2113 
z
" transform="scale(0.015625)"/>
        <path id="DejaVuSans-79" d="M 2059 -325 
Q 1816 -950 1584 -1140 
Q 1353 -1331 966 -1331 
L 506 -1331 
L 506 -850 
L 844 -850 
Q 1081 -850 1212 -737 
Q 1344 -625 1503 -206 
L 1606 56 
L 191 3500 
L 800 3500 
L 1894 763 
L 2988 3500 
L 3597 3500 
L 2059 -325 
z
" transform="scale(0.015625)"/>
        <path id="DejaVuSans-73" d="M 2834 3397 
L 2834 2853 
Q 2591 2978 2328 3040 
Q 2066 3103 1784 3103 
Q 1356 3103 1142 2972 
Q 928 2841 928 2578 
Q 928 2378 1081 2264 
Q 1234 2150 1697 2047 
L 1894 2003 
Q 2506 1872 2764 1633 
Q 3022 1394 3022 966 
Q 3022 478 2636 193 
Q 2250 -91 1575 -91 
Q 1294 -91 989 -36 
Q 684 19 347 128 
L 347 722 
Q 666 556 975 473 
Q 1284 391 1588 391 
Q 1994 391 2212 530 
Q 2431 669 2431 922 
Q 2431 1156 2273 1281 
Q 2116 1406 1581 1522 
L 1381 1569 
Q 847 1681 609 1914 
Q 372 2147 372 2553 
Q 372 3047 722 3315 
Q 1072 3584 1716 3584 
Q 2034 3584 2315 3537 
Q 2597 3491 2834 3397 
z
" transform="scale(0.015625)"/>
        <path id="DejaVuSans-69" d="M 603 3500 
L 1178 3500 
L 1178 0 
L 603 0 
L 603 3500 
z
M 603 4863 
L 1178 4863 
L 1178 4134 
L 603 4134 
L 603 4863 
z
" transform="scale(0.015625)"/>
        <path id="DejaVuSans-63" d="M 3122 3366 
L 3122 2828 
Q 2878 2963 2633 3030 
Q 2388 3097 2138 3097 
Q 1578 3097 1268 2742 
Q 959 2388 959 1747 
Q 959 1106 1268 751 
Q 1578 397 2138 397 
Q 2388 397 2633 464 
Q 2878 531 3122 666 
L 3122 134 
Q 2881 22 2623 -34 
Q 2366 -91 2075 -91 
Q 1284 -91 818 406 
Q 353 903 353 1747 
Q 353 2603 823 3093 
Q 1294 3584 2113 3584 
Q 2378 3584 2631 3529 
Q 2884 3475 3122 3366 
z
" transform="scale(0.015625)"/>
       </defs>
       <use xlink:href="#DejaVuSans-50"/>
       <use xlink:href="#DejaVuSans-68" x="60.302734"/>
       <use xlink:href="#DejaVuSans-79" x="123.681641"/>
       <use xlink:href="#DejaVuSans-73" x="182.861328"/>
       <use xlink:href="#DejaVuSans-69" x="234.960938"/>
       <use xlink:href="#DejaVuSans-63" x="262.744141"/>
       <use xlink:href="#DejaVuSans-61" x="317.724609"/>
       <use xlink:href="#DejaVuSans-6c" x="379.003906"/>
      </g>
      <!-- Demand -->
      <g transform="translate(201.97836 373.15475) scale(0.14 -0.14)">
       <use xlink:href="#DejaVuSans-44"/>
       <use xlink:href="#DejaVuSans-65" x="77.001953"/>
       <use xlink:href="#DejaVuSans-6d" x="138.525391"/>
       <use xlink:href="#DejaVuSans-61" x="235.9375"/>
       <use xlink:href="#DejaVuSans-6e" x="297.216797"/>
       <use xlink:href="#DejaVuSans-64" x="360.595703"/>
      </g>
      <!--  -->
      <g transform="translate(231.663829 388.831687) scale(0.14 -0.14)"/>
     </g>
    </g>
    <g id="xtick_3">
     <g id="line2d_3">
      <g>
       <use xlink:href="#m9bb8651d68" x="334.837943" y="339.84" style="stroke: #000000; stroke-width: 0.8"/>
      </g>
     </g>
     <g id="text_3">
      <!-- Temporal -->
      <g transform="translate(302.787787 357.477812) scale(0.14 -0.14)">
       <defs>
        <path id="DejaVuSans-54" d="M -19 4666 
L 3928 4666 
L 3928 4134 
L 2272 4134 
L 2272 0 
L 1638 0 
L 1638 4134 
L -19 4134 
L -19 4666 
z
" transform="scale(0.015625)"/>
        <path id="DejaVuSans-70" d="M 1159 525 
L 1159 -1331 
L 581 -1331 
L 581 3500 
L 1159 3500 
L 1159 2969 
Q 1341 3281 1617 3432 
Q 1894 3584 2278 3584 
Q 2916 3584 3314 3078 
Q 3713 2572 3713 1747 
Q 3713 922 3314 415 
Q 2916 -91 2278 -91 
Q 1894 -91 1617 61 
Q 1341 213 1159 525 
z
M 3116 1747 
Q 3116 2381 2855 2742 
Q 2594 3103 2138 3103 
Q 1681 3103 1420 2742 
Q 1159 2381 1159 1747 
Q 1159 1113 1420 752 
Q 1681 391 2138 391 
Q 2594 391 2855 752 
Q 3116 1113 3116 1747 
z
" transform="scale(0.015625)"/>
        <path id="DejaVuSans-6f" d="M 1959 3097 
Q 1497 3097 1228 2736 
Q 959 2375 959 1747 
Q 959 1119 1226 758 
Q 1494 397 1959 397 
Q 2419 397 2687 759 
Q 2956 1122 2956 1747 
Q 2956 2369 2687 2733 
Q 2419 3097 1959 3097 
z
M 1959 3584 
Q 2709 3584 3137 3096 
Q 3566 2609 3566 1747 
Q 3566 888 3137 398 
Q 2709 -91 1959 -91 
Q 1206 -91 779 398 
Q 353 888 353 1747 
Q 353 2609 779 3096 
Q 1206 3584 1959 3584 
z
" transform="scale(0.015625)"/>
        <path id="DejaVuSans-72" d="M 2631 2963 
Q 2534 3019 2420 3045 
Q 2306 3072 2169 3072 
Q 1681 3072 1420 2755 
Q 1159 2438 1159 1844 
L 1159 0 
L 581 0 
L 581 3500 
L 1159 3500 
L 1159 2956 
Q 1341 3275 1631 3429 
Q 1922 3584 2338 3584 
Q 2397 3584 2469 3576 
Q 2541 3569 2628 3553 
L 2631 2963 
z
" transform="scale(0.015625)"/>
       </defs>
       <use xlink:href="#DejaVuSans-54"/>
       <use xlink:href="#DejaVuSans-65" x="44.083984"/>
       <use xlink:href="#DejaVuSans-6d" x="105.607422"/>
       <use xlink:href="#DejaVuSans-70" x="203.019531"/>
       <use xlink:href="#DejaVuSans-6f" x="266.496094"/>
       <use xlink:href="#DejaVuSans-72" x="327.677734"/>
       <use xlink:href="#DejaVuSans-61" x="368.791016"/>
       <use xlink:href="#DejaVuSans-6c" x="430.070312"/>
      </g>
      <!-- Demand -->
      <g transform="translate(305.152474 373.15475) scale(0.14 -0.14)">
       <use xlink:href="#DejaVuSans-44"/>
       <use xlink:href="#DejaVuSans-65" x="77.001953"/>
       <use xlink:href="#DejaVuSans-6d" x="138.525391"/>
       <use xlink:href="#DejaVuSans-61" x="235.9375"/>
       <use xlink:href="#DejaVuSans-6e" x="297.216797"/>
       <use xlink:href="#DejaVuSans-64" x="360.595703"/>
      </g>
      <!--  -->
      <g transform="translate(334.837943 388.831687) scale(0.14 -0.14)"/>
     </g>
    </g>
    <g id="xtick_4">
     <g id="line2d_4">
      <g>
       <use xlink:href="#m9bb8651d68" x="438.012057" y="339.84" style="stroke: #000000; stroke-width: 0.8"/>
      </g>
     </g>
     <g id="text_4">
      <!-- Performance -->
      <g transform="translate(393.657213 357.477812) scale(0.14 -0.14)">
       <defs>
        <path id="DejaVuSans-66" d="M 2375 4863 
L 2375 4384 
L 1825 4384 
Q 1516 4384 1395 4259 
Q 1275 4134 1275 3809 
L 1275 3500 
L 2222 3500 
L 2222 3053 
L 1275 3053 
L 1275 0 
L 697 0 
L 697 3053 
L 147 3053 
L 147 3500 
L 697 3500 
L 697 3744 
Q 697 4328 969 4595 
Q 1241 4863 1831 4863 
L 2375 4863 
z
" transform="scale(0.015625)"/>
       </defs>
       <use xlink:href="#DejaVuSans-50"/>
       <use xlink:href="#DejaVuSans-65" x="56.677734"/>
       <use xlink:href="#DejaVuSans-72" x="118.201172"/>
       <use xlink:href="#DejaVuSans-66" x="159.314453"/>
       <use xlink:href="#DejaVuSans-6f" x="194.519531"/>
       <use xlink:href="#DejaVuSans-72" x="255.701172"/>
       <use xlink:href="#DejaVuSans-6d" x="295.064453"/>
       <use xlink:href="#DejaVuSans-61" x="392.476562"/>
       <use xlink:href="#DejaVuSans-6e" x="453.755859"/>
       <use xlink:href="#DejaVuSans-63" x="517.134766"/>
       <use xlink:href="#DejaVuSans-65" x="572.115234"/>
      </g>
     </g>
    </g>
    <g id="xtick_5">
     <g id="line2d_5">
      <g>
       <use xlink:href="#m9bb8651d68" x="541.186171" y="339.84" style="stroke: #000000; stroke-width: 0.8"/>
      </g>
     </g>
     <g id="text_5">
      <!-- Effort -->
      <g transform="translate(521.929609 357.477812) scale(0.14 -0.14)">
       <defs>
        <path id="DejaVuSans-45" d="M 628 4666 
L 3578 4666 
L 3578 4134 
L 1259 4134 
L 1259 2753 
L 3481 2753 
L 3481 2222 
L 1259 2222 
L 1259 531 
L 3634 531 
L 3634 0 
L 628 0 
L 628 4666 
z
" transform="scale(0.015625)"/>
       </defs>
       <use xlink:href="#DejaVuSans-45"/>
       <use xlink:href="#DejaVuSans-66" x="63.183594"/>
       <use xlink:href="#DejaVuSans-66" x="98.388672"/>
       <use xlink:href="#DejaVuSans-6f" x="133.59375"/>
       <use xlink:href="#DejaVuSans-72" x="194.775391"/>
       <use xlink:href="#DejaVuSans-74" x="235.888672"/>
      </g>
     </g>
    </g>
    <g id="xtick_6">
     <g id="line2d_6">
      <g>
       <use xlink:href="#m9bb8651d68" x="644.360285" y="339.84" style="stroke: #000000; stroke-width: 0.8"/>
      </g>
     </g>
     <g id="text_6">
      <!-- Frustration -->
      <g transform="translate(606.561379 357.477812) scale(0.14 -0.14)">
       <defs>
        <path id="DejaVuSans-46" d="M 628 4666 
L 3309 4666 
L 3309 4134 
L 1259 4134 
L 1259 2759 
L 3109 2759 
L 3109 2228 
L 1259 2228 
L 1259 0 
L 628 0 
L 628 4666 
z
" transform="scale(0.015625)"/>
        <path id="DejaVuSans-75" d="M 544 1381 
L 544 3500 
L 1119 3500 
L 1119 1403 
Q 1119 906 1312 657 
Q 1506 409 1894 409 
Q 2359 409 2629 706 
Q 2900 1003 2900 1516 
L 2900 3500 
L 3475 3500 
L 3475 0 
L 2900 0 
L 2900 538 
Q 2691 219 2414 64 
Q 2138 -91 1772 -91 
Q 1169 -91 856 284 
Q 544 659 544 1381 
z
M 1991 3584 
L 1991 3584 
z
" transform="scale(0.015625)"/>
       </defs>
       <use xlink:href="#DejaVuSans-46"/>
       <use xlink:href="#DejaVuSans-72" x="50.269531"/>
       <use xlink:href="#DejaVuSans-75" x="91.382812"/>
       <use xlink:href="#DejaVuSans-73" x="154.761719"/>
       <use xlink:href="#DejaVuSans-74" x="206.861328"/>
       <use xlink:href="#DejaVuSans-72" x="246.070312"/>
       <use xlink:href="#DejaVuSans-61" x="287.183594"/>
       <use xlink:href="#DejaVuSans-74" x="348.462891"/>
       <use xlink:href="#DejaVuSans-69" x="387.671875"/>
       <use xlink:href="#DejaVuSans-6f" x="415.455078"/>
       <use xlink:href="#DejaVuSans-6e" x="476.636719"/>
      </g>
     </g>
    </g>
    <g id="text_7">
     <!-- NASA TLX Measure -->
     <g transform="translate(300.68 407.90075) scale(0.16 -0.16)">
      <defs>
       <path id="DejaVuSans-Bold-4e" d="M 588 4666 
L 1931 4666 
L 3628 1466 
L 3628 4666 
L 4769 4666 
L 4769 0 
L 3425 0 
L 1728 3200 
L 1728 0 
L 588 0 
L 588 4666 
z
" transform="scale(0.015625)"/>
       <path id="DejaVuSans-Bold-41" d="M 3419 850 
L 1538 850 
L 1241 0 
L 31 0 
L 1759 4666 
L 3194 4666 
L 4922 0 
L 3713 0 
L 3419 850 
z
M 1838 1716 
L 3116 1716 
L 2478 3572 
L 1838 1716 
z
" transform="scale(0.015625)"/>
       <path id="DejaVuSans-Bold-53" d="M 3834 4519 
L 3834 3531 
Q 3450 3703 3084 3790 
Q 2719 3878 2394 3878 
Q 1963 3878 1756 3759 
Q 1550 3641 1550 3391 
Q 1550 3203 1689 3098 
Q 1828 2994 2194 2919 
L 2706 2816 
Q 3484 2659 3812 2340 
Q 4141 2022 4141 1434 
Q 4141 663 3683 286 
Q 3225 -91 2284 -91 
Q 1841 -91 1394 -6 
Q 947 78 500 244 
L 500 1259 
Q 947 1022 1364 901 
Q 1781 781 2169 781 
Q 2563 781 2772 912 
Q 2981 1044 2981 1288 
Q 2981 1506 2839 1625 
Q 2697 1744 2272 1838 
L 1806 1941 
Q 1106 2091 782 2419 
Q 459 2747 459 3303 
Q 459 4000 909 4375 
Q 1359 4750 2203 4750 
Q 2588 4750 2994 4692 
Q 3400 4634 3834 4519 
z
" transform="scale(0.015625)"/>
       <path id="DejaVuSans-Bold-20" transform="scale(0.015625)"/>
       <path id="DejaVuSans-Bold-54" d="M 31 4666 
L 4331 4666 
L 4331 3756 
L 2784 3756 
L 2784 0 
L 1581 0 
L 1581 3756 
L 31 3756 
L 31 4666 
z
" transform="scale(0.015625)"/>
       <path id="DejaVuSans-Bold-4c" d="M 588 4666 
L 1791 4666 
L 1791 909 
L 3903 909 
L 3903 0 
L 588 0 
L 588 4666 
z
" transform="scale(0.015625)"/>
       <path id="DejaVuSans-Bold-58" d="M 3188 2381 
L 4806 0 
L 3553 0 
L 2463 1594 
L 1381 0 
L 122 0 
L 1741 2381 
L 184 4666 
L 1441 4666 
L 2463 3163 
L 3481 4666 
L 4744 4666 
L 3188 2381 
z
" transform="scale(0.015625)"/>
       <path id="DejaVuSans-Bold-4d" d="M 588 4666 
L 2119 4666 
L 3181 2169 
L 4250 4666 
L 5778 4666 
L 5778 0 
L 4641 0 
L 4641 3413 
L 3566 897 
L 2803 897 
L 1728 3413 
L 1728 0 
L 588 0 
L 588 4666 
z
" transform="scale(0.015625)"/>
       <path id="DejaVuSans-Bold-65" d="M 4031 1759 
L 4031 1441 
L 1416 1441 
Q 1456 1047 1700 850 
Q 1944 653 2381 653 
Q 2734 653 3104 758 
Q 3475 863 3866 1075 
L 3866 213 
Q 3469 63 3072 -14 
Q 2675 -91 2278 -91 
Q 1328 -91 801 392 
Q 275 875 275 1747 
Q 275 2603 792 3093 
Q 1309 3584 2216 3584 
Q 3041 3584 3536 3087 
Q 4031 2591 4031 1759 
z
M 2881 2131 
Q 2881 2450 2695 2645 
Q 2509 2841 2209 2841 
Q 1884 2841 1681 2658 
Q 1478 2475 1428 2131 
L 2881 2131 
z
" transform="scale(0.015625)"/>
       <path id="DejaVuSans-Bold-61" d="M 2106 1575 
Q 1756 1575 1579 1456 
Q 1403 1338 1403 1106 
Q 1403 894 1545 773 
Q 1688 653 1941 653 
Q 2256 653 2472 879 
Q 2688 1106 2688 1447 
L 2688 1575 
L 2106 1575 
z
M 3816 1997 
L 3816 0 
L 2688 0 
L 2688 519 
Q 2463 200 2181 54 
Q 1900 -91 1497 -91 
Q 953 -91 614 226 
Q 275 544 275 1050 
Q 275 1666 698 1953 
Q 1122 2241 2028 2241 
L 2688 2241 
L 2688 2328 
Q 2688 2594 2478 2717 
Q 2269 2841 1825 2841 
Q 1466 2841 1156 2769 
Q 847 2697 581 2553 
L 581 3406 
Q 941 3494 1303 3539 
Q 1666 3584 2028 3584 
Q 2975 3584 3395 3211 
Q 3816 2838 3816 1997 
z
" transform="scale(0.015625)"/>
       <path id="DejaVuSans-Bold-73" d="M 3272 3391 
L 3272 2541 
Q 2913 2691 2578 2766 
Q 2244 2841 1947 2841 
Q 1628 2841 1473 2761 
Q 1319 2681 1319 2516 
Q 1319 2381 1436 2309 
Q 1553 2238 1856 2203 
L 2053 2175 
Q 2913 2066 3209 1816 
Q 3506 1566 3506 1031 
Q 3506 472 3093 190 
Q 2681 -91 1863 -91 
Q 1516 -91 1145 -36 
Q 775 19 384 128 
L 384 978 
Q 719 816 1070 734 
Q 1422 653 1784 653 
Q 2113 653 2278 743 
Q 2444 834 2444 1013 
Q 2444 1163 2330 1236 
Q 2216 1309 1875 1350 
L 1678 1375 
Q 931 1469 631 1722 
Q 331 1975 331 2491 
Q 331 3047 712 3315 
Q 1094 3584 1881 3584 
Q 2191 3584 2531 3537 
Q 2872 3491 3272 3391 
z
" transform="scale(0.015625)"/>
       <path id="DejaVuSans-Bold-75" d="M 500 1363 
L 500 3500 
L 1625 3500 
L 1625 3150 
Q 1625 2866 1622 2436 
Q 1619 2006 1619 1863 
Q 1619 1441 1641 1255 
Q 1663 1069 1716 984 
Q 1784 875 1895 815 
Q 2006 756 2150 756 
Q 2500 756 2700 1025 
Q 2900 1294 2900 1772 
L 2900 3500 
L 4019 3500 
L 4019 0 
L 2900 0 
L 2900 506 
Q 2647 200 2364 54 
Q 2081 -91 1741 -91 
Q 1134 -91 817 281 
Q 500 653 500 1363 
z
" transform="scale(0.015625)"/>
       <path id="DejaVuSans-Bold-72" d="M 3138 2547 
Q 2991 2616 2845 2648 
Q 2700 2681 2553 2681 
Q 2122 2681 1889 2404 
Q 1656 2128 1656 1613 
L 1656 0 
L 538 0 
L 538 3500 
L 1656 3500 
L 1656 2925 
Q 1872 3269 2151 3426 
Q 2431 3584 2822 3584 
Q 2878 3584 2943 3579 
Q 3009 3575 3134 3559 
L 3138 2547 
z
" transform="scale(0.015625)"/>
      </defs>
      <use xlink:href="#DejaVuSans-Bold-4e"/>
      <use xlink:href="#DejaVuSans-Bold-41" x="83.691406"/>
      <use xlink:href="#DejaVuSans-Bold-53" x="161.083984"/>
      <use xlink:href="#DejaVuSans-Bold-41" x="233.105469"/>
      <use xlink:href="#DejaVuSans-Bold-20" x="310.498047"/>
      <use xlink:href="#DejaVuSans-Bold-54" x="345.3125"/>
      <use xlink:href="#DejaVuSans-Bold-4c" x="413.525391"/>
      <use xlink:href="#DejaVuSans-Bold-58" x="477.246094"/>
      <use xlink:href="#DejaVuSans-Bold-20" x="554.345703"/>
      <use xlink:href="#DejaVuSans-Bold-4d" x="589.160156"/>
      <use xlink:href="#DejaVuSans-Bold-65" x="688.671875"/>
      <use xlink:href="#DejaVuSans-Bold-61" x="756.494141"/>
      <use xlink:href="#DejaVuSans-Bold-73" x="823.974609"/>
      <use xlink:href="#DejaVuSans-Bold-75" x="883.496094"/>
      <use xlink:href="#DejaVuSans-Bold-72" x="954.6875"/>
      <use xlink:href="#DejaVuSans-Bold-65" x="1004.003906"/>
     </g>
    </g>
   </g>
   <g id="matplotlib.axis_2">
    <g id="ytick_1">
     <g id="line2d_7">
      <defs>
       <path id="m8f15fdc302" d="M 0 0 
L -3.5 0 
" style="stroke: #000000; stroke-width: 0.8"/>
      </defs>
      <g>
       <use xlink:href="#m8f15fdc302" x="51.625" y="339.84" style="stroke: #000000; stroke-width: 0.8"/>
      </g>
     </g>
     <g id="text_8">
      <!-- 0 -->
      <g transform="translate(35.7175 345.158906) scale(0.14 -0.14)">
       <defs>
        <path id="DejaVuSans-30" d="M 2034 4250 
Q 1547 4250 1301 3770 
Q 1056 3291 1056 2328 
Q 1056 1369 1301 889 
Q 1547 409 2034 409 
Q 2525 409 2770 889 
Q 3016 1369 3016 2328 
Q 3016 3291 2770 3770 
Q 2525 4250 2034 4250 
z
M 2034 4750 
Q 2819 4750 3233 4129 
Q 3647 3509 3647 2328 
Q 3647 1150 3233 529 
Q 2819 -91 2034 -91 
Q 1250 -91 836 529 
Q 422 1150 422 2328 
Q 422 3509 836 4129 
Q 1250 4750 2034 4750 
z
" transform="scale(0.015625)"/>
       </defs>
       <use xlink:href="#DejaVuSans-30"/>
      </g>
     </g>
    </g>
    <g id="ytick_2">
     <g id="line2d_8">
      <g>
       <use xlink:href="#m8f15fdc302" x="51.625" y="278.895775" style="stroke: #000000; stroke-width: 0.8"/>
      </g>
     </g>
     <g id="text_9">
      <!-- 2 -->
      <g transform="translate(35.7175 284.214681) scale(0.14 -0.14)">
       <defs>
        <path id="DejaVuSans-32" d="M 1228 531 
L 3431 531 
L 3431 0 
L 469 0 
L 469 531 
Q 828 903 1448 1529 
Q 2069 2156 2228 2338 
Q 2531 2678 2651 2914 
Q 2772 3150 2772 3378 
Q 2772 3750 2511 3984 
Q 2250 4219 1831 4219 
Q 1534 4219 1204 4116 
Q 875 4013 500 3803 
L 500 4441 
Q 881 4594 1212 4672 
Q 1544 4750 1819 4750 
Q 2544 4750 2975 4387 
Q 3406 4025 3406 3419 
Q 3406 3131 3298 2873 
Q 3191 2616 2906 2266 
Q 2828 2175 2409 1742 
Q 1991 1309 1228 531 
z
" transform="scale(0.015625)"/>
       </defs>
       <use xlink:href="#DejaVuSans-32"/>
      </g>
     </g>
    </g>
    <g id="ytick_3">
     <g id="line2d_9">
      <g>
       <use xlink:href="#m8f15fdc302" x="51.625" y="217.95155" style="stroke: #000000; stroke-width: 0.8"/>
      </g>
     </g>
     <g id="text_10">
      <!-- 4 -->
      <g transform="translate(35.7175 223.270456) scale(0.14 -0.14)">
       <defs>
        <path id="DejaVuSans-34" d="M 2419 4116 
L 825 1625 
L 2419 1625 
L 2419 4116 
z
M 2253 4666 
L 3047 4666 
L 3047 1625 
L 3713 1625 
L 3713 1100 
L 3047 1100 
L 3047 0 
L 2419 0 
L 2419 1100 
L 313 1100 
L 313 1709 
L 2253 4666 
z
" transform="scale(0.015625)"/>
       </defs>
       <use xlink:href="#DejaVuSans-34"/>
      </g>
     </g>
    </g>
    <g id="ytick_4">
     <g id="line2d_10">
      <g>
       <use xlink:href="#m8f15fdc302" x="51.625" y="157.007325" style="stroke: #000000; stroke-width: 0.8"/>
      </g>
     </g>
     <g id="text_11">
      <!-- 6 -->
      <g transform="translate(35.7175 162.326231) scale(0.14 -0.14)">
       <defs>
        <path id="DejaVuSans-36" d="M 2113 2584 
Q 1688 2584 1439 2293 
Q 1191 2003 1191 1497 
Q 1191 994 1439 701 
Q 1688 409 2113 409 
Q 2538 409 2786 701 
Q 3034 994 3034 1497 
Q 3034 2003 2786 2293 
Q 2538 2584 2113 2584 
z
M 3366 4563 
L 3366 3988 
Q 3128 4100 2886 4159 
Q 2644 4219 2406 4219 
Q 1781 4219 1451 3797 
Q 1122 3375 1075 2522 
Q 1259 2794 1537 2939 
Q 1816 3084 2150 3084 
Q 2853 3084 3261 2657 
Q 3669 2231 3669 1497 
Q 3669 778 3244 343 
Q 2819 -91 2113 -91 
Q 1303 -91 875 529 
Q 447 1150 447 2328 
Q 447 3434 972 4092 
Q 1497 4750 2381 4750 
Q 2619 4750 2861 4703 
Q 3103 4656 3366 4563 
z
" transform="scale(0.015625)"/>
       </defs>
       <use xlink:href="#DejaVuSans-36"/>
      </g>
     </g>
    </g>
    <g id="ytick_5">
     <g id="line2d_11">
      <g>
       <use xlink:href="#m8f15fdc302" x="51.625" y="96.0631" style="stroke: #000000; stroke-width: 0.8"/>
      </g>
     </g>
     <g id="text_12">
      <!-- 8 -->
      <g transform="translate(35.7175 101.382006) scale(0.14 -0.14)">
       <defs>
        <path id="DejaVuSans-38" d="M 2034 2216 
Q 1584 2216 1326 1975 
Q 1069 1734 1069 1313 
Q 1069 891 1326 650 
Q 1584 409 2034 409 
Q 2484 409 2743 651 
Q 3003 894 3003 1313 
Q 3003 1734 2745 1975 
Q 2488 2216 2034 2216 
z
M 1403 2484 
Q 997 2584 770 2862 
Q 544 3141 544 3541 
Q 544 4100 942 4425 
Q 1341 4750 2034 4750 
Q 2731 4750 3128 4425 
Q 3525 4100 3525 3541 
Q 3525 3141 3298 2862 
Q 3072 2584 2669 2484 
Q 3125 2378 3379 2068 
Q 3634 1759 3634 1313 
Q 3634 634 3220 271 
Q 2806 -91 2034 -91 
Q 1263 -91 848 271 
Q 434 634 434 1313 
Q 434 1759 690 2068 
Q 947 2378 1403 2484 
z
M 1172 3481 
Q 1172 3119 1398 2916 
Q 1625 2713 2034 2713 
Q 2441 2713 2670 2916 
Q 2900 3119 2900 3481 
Q 2900 3844 2670 4047 
Q 2441 4250 2034 4250 
Q 1625 4250 1398 4047 
Q 1172 3844 1172 3481 
z
" transform="scale(0.015625)"/>
       </defs>
       <use xlink:href="#DejaVuSans-38"/>
      </g>
     </g>
    </g>
    <g id="ytick_6">
     <g id="line2d_12">
      <g>
       <use xlink:href="#m8f15fdc302" x="51.625" y="35.118875" style="stroke: #000000; stroke-width: 0.8"/>
      </g>
     </g>
     <g id="text_13">
      <!-- 10 -->
      <g transform="translate(26.81 40.437781) scale(0.14 -0.14)">
       <defs>
        <path id="DejaVuSans-31" d="M 794 531 
L 1825 531 
L 1825 4091 
L 703 3866 
L 703 4441 
L 1819 4666 
L 2450 4666 
L 2450 531 
L 3481 531 
L 3481 0 
L 794 0 
L 794 531 
z
" transform="scale(0.015625)"/>
       </defs>
       <use xlink:href="#DejaVuSans-31"/>
       <use xlink:href="#DejaVuSans-30" x="63.623047"/>
      </g>
     </g>
    </g>
    <g id="text_14">
     <!-- Subjective Rating -->
     <g transform="translate(19.3575 253.1525) rotate(-90) scale(0.16 -0.16)">
      <defs>
       <path id="DejaVuSans-Bold-62" d="M 2400 722 
Q 2759 722 2948 984 
Q 3138 1247 3138 1747 
Q 3138 2247 2948 2509 
Q 2759 2772 2400 2772 
Q 2041 2772 1848 2508 
Q 1656 2244 1656 1747 
Q 1656 1250 1848 986 
Q 2041 722 2400 722 
z
M 1656 2988 
Q 1888 3294 2169 3439 
Q 2450 3584 2816 3584 
Q 3463 3584 3878 3070 
Q 4294 2556 4294 1747 
Q 4294 938 3878 423 
Q 3463 -91 2816 -91 
Q 2450 -91 2169 54 
Q 1888 200 1656 506 
L 1656 0 
L 538 0 
L 538 4863 
L 1656 4863 
L 1656 2988 
z
" transform="scale(0.015625)"/>
       <path id="DejaVuSans-Bold-6a" d="M 538 3500 
L 1656 3500 
L 1656 63 
Q 1656 -641 1318 -1011 
Q 981 -1381 341 -1381 
L -213 -1381 
L -213 -647 
L -19 -647 
Q 300 -647 419 -503 
Q 538 -359 538 63 
L 538 3500 
z
M 538 4863 
L 1656 4863 
L 1656 3950 
L 538 3950 
L 538 4863 
z
" transform="scale(0.015625)"/>
       <path id="DejaVuSans-Bold-63" d="M 3366 3391 
L 3366 2478 
Q 3138 2634 2908 2709 
Q 2678 2784 2431 2784 
Q 1963 2784 1702 2511 
Q 1441 2238 1441 1747 
Q 1441 1256 1702 982 
Q 1963 709 2431 709 
Q 2694 709 2930 787 
Q 3166 866 3366 1019 
L 3366 103 
Q 3103 6 2833 -42 
Q 2563 -91 2291 -91 
Q 1344 -91 809 395 
Q 275 881 275 1747 
Q 275 2613 809 3098 
Q 1344 3584 2291 3584 
Q 2566 3584 2833 3536 
Q 3100 3488 3366 3391 
z
" transform="scale(0.015625)"/>
       <path id="DejaVuSans-Bold-74" d="M 1759 4494 
L 1759 3500 
L 2913 3500 
L 2913 2700 
L 1759 2700 
L 1759 1216 
Q 1759 972 1856 886 
Q 1953 800 2241 800 
L 2816 800 
L 2816 0 
L 1856 0 
Q 1194 0 917 276 
Q 641 553 641 1216 
L 641 2700 
L 84 2700 
L 84 3500 
L 641 3500 
L 641 4494 
L 1759 4494 
z
" transform="scale(0.015625)"/>
       <path id="DejaVuSans-Bold-69" d="M 538 3500 
L 1656 3500 
L 1656 0 
L 538 0 
L 538 3500 
z
M 538 4863 
L 1656 4863 
L 1656 3950 
L 538 3950 
L 538 4863 
z
" transform="scale(0.015625)"/>
       <path id="DejaVuSans-Bold-76" d="M 97 3500 
L 1216 3500 
L 2088 1081 
L 2956 3500 
L 4078 3500 
L 2700 0 
L 1472 0 
L 97 3500 
z
" transform="scale(0.015625)"/>
       <path id="DejaVuSans-Bold-52" d="M 2297 2597 
Q 2675 2597 2839 2737 
Q 3003 2878 3003 3200 
Q 3003 3519 2839 3656 
Q 2675 3794 2297 3794 
L 1791 3794 
L 1791 2597 
L 2297 2597 
z
M 1791 1766 
L 1791 0 
L 588 0 
L 588 4666 
L 2425 4666 
Q 3347 4666 3776 4356 
Q 4206 4047 4206 3378 
Q 4206 2916 3982 2619 
Q 3759 2322 3309 2181 
Q 3556 2125 3751 1926 
Q 3947 1728 4147 1325 
L 4800 0 
L 3519 0 
L 2950 1159 
Q 2778 1509 2601 1637 
Q 2425 1766 2131 1766 
L 1791 1766 
z
" transform="scale(0.015625)"/>
       <path id="DejaVuSans-Bold-6e" d="M 4056 2131 
L 4056 0 
L 2931 0 
L 2931 347 
L 2931 1631 
Q 2931 2084 2911 2256 
Q 2891 2428 2841 2509 
Q 2775 2619 2662 2680 
Q 2550 2741 2406 2741 
Q 2056 2741 1856 2470 
Q 1656 2200 1656 1722 
L 1656 0 
L 538 0 
L 538 3500 
L 1656 3500 
L 1656 2988 
Q 1909 3294 2193 3439 
Q 2478 3584 2822 3584 
Q 3428 3584 3742 3212 
Q 4056 2841 4056 2131 
z
" transform="scale(0.015625)"/>
       <path id="DejaVuSans-Bold-67" d="M 2919 594 
Q 2688 288 2409 144 
Q 2131 0 1766 0 
Q 1125 0 706 504 
Q 288 1009 288 1791 
Q 288 2575 706 3076 
Q 1125 3578 1766 3578 
Q 2131 3578 2409 3434 
Q 2688 3291 2919 2981 
L 2919 3500 
L 4044 3500 
L 4044 353 
Q 4044 -491 3511 -936 
Q 2978 -1381 1966 -1381 
Q 1638 -1381 1331 -1331 
Q 1025 -1281 716 -1178 
L 716 -306 
Q 1009 -475 1290 -558 
Q 1572 -641 1856 -641 
Q 2406 -641 2662 -400 
Q 2919 -159 2919 353 
L 2919 594 
z
M 2181 2772 
Q 1834 2772 1640 2515 
Q 1447 2259 1447 1791 
Q 1447 1309 1634 1061 
Q 1822 813 2181 813 
Q 2531 813 2725 1069 
Q 2919 1325 2919 1791 
Q 2919 2259 2725 2515 
Q 2531 2772 2181 2772 
z
" transform="scale(0.015625)"/>
      </defs>
      <use xlink:href="#DejaVuSans-Bold-53"/>
      <use xlink:href="#DejaVuSans-Bold-75" x="72.021484"/>
      <use xlink:href="#DejaVuSans-Bold-62" x="143.212891"/>
      <use xlink:href="#DejaVuSans-Bold-6a" x="214.794922"/>
      <use xlink:href="#DejaVuSans-Bold-65" x="249.072266"/>
      <use xlink:href="#DejaVuSans-Bold-63" x="316.894531"/>
      <use xlink:href="#DejaVuSans-Bold-74" x="376.171875"/>
      <use xlink:href="#DejaVuSans-Bold-69" x="423.974609"/>
      <use xlink:href="#DejaVuSans-Bold-76" x="458.251953"/>
      <use xlink:href="#DejaVuSans-Bold-65" x="523.4375"/>
      <use xlink:href="#DejaVuSans-Bold-20" x="591.259766"/>
      <use xlink:href="#DejaVuSans-Bold-52" x="626.074219"/>
      <use xlink:href="#DejaVuSans-Bold-61" x="703.076172"/>
      <use xlink:href="#DejaVuSans-Bold-74" x="770.556641"/>
      <use xlink:href="#DejaVuSans-Bold-69" x="818.359375"/>
      <use xlink:href="#DejaVuSans-Bold-6e" x="852.636719"/>
      <use xlink:href="#DejaVuSans-Bold-67" x="923.828125"/>
     </g>
    </g>
   </g>
   <g id="LineCollection_1">
    <path d="M 97.537481 95.953129 
L 97.537481 23.04 
" clip-path="url(#p5267aa1ffe)" style="fill: none; stroke: #000000; stroke-width: 1.5"/>
    <path d="M 200.711595 211.747157 
L 200.711595 138.834028 
" clip-path="url(#p5267aa1ffe)" style="fill: none; stroke: #000000; stroke-width: 1.5"/>
    <path d="M 303.885709 223.936002 
L 303.885709 151.022873 
" clip-path="url(#p5267aa1ffe)" style="fill: none; stroke: #000000; stroke-width: 1.5"/>
    <path d="M 407.059823 169.0862 
L 407.059823 96.17307 
" clip-path="url(#p5267aa1ffe)" style="fill: none; stroke: #000000; stroke-width: 1.5"/>
    <path d="M 510.233937 120.330819 
L 510.233937 47.41769 
" clip-path="url(#p5267aa1ffe)" style="fill: none; stroke: #000000; stroke-width: 1.5"/>
    <path d="M 613.408051 169.0862 
L 613.408051 96.17307 
" clip-path="url(#p5267aa1ffe)" style="fill: none; stroke: #000000; stroke-width: 1.5"/>
   </g>
   <g id="line2d_13">
    <defs>
     <path id="m44e710c8a2" d="M 6 0 
L -6 -0 
" style="stroke: #000000"/>
    </defs>
    <g clip-path="url(#p5267aa1ffe)">
     <use xlink:href="#m44e710c8a2" x="97.537481" y="95.953129" style="stroke: #000000"/>
     <use xlink:href="#m44e710c8a2" x="200.711595" y="211.747157" style="stroke: #000000"/>
     <use xlink:href="#m44e710c8a2" x="303.885709" y="223.936002" style="stroke: #000000"/>
     <use xlink:href="#m44e710c8a2" x="407.059823" y="169.0862" style="stroke: #000000"/>
     <use xlink:href="#m44e710c8a2" x="510.233937" y="120.330819" style="stroke: #000000"/>
     <use xlink:href="#m44e710c8a2" x="613.408051" y="169.0862" style="stroke: #000000"/>
    </g>
   </g>
   <g id="line2d_14">
    <g clip-path="url(#p5267aa1ffe)">
     <use xlink:href="#m44e710c8a2" x="97.537481" y="23.04" style="stroke: #000000"/>
     <use xlink:href="#m44e710c8a2" x="200.711595" y="138.834028" style="stroke: #000000"/>
     <use xlink:href="#m44e710c8a2" x="303.885709" y="151.022873" style="stroke: #000000"/>
     <use xlink:href="#m44e710c8a2" x="407.059823" y="96.17307" style="stroke: #000000"/>
     <use xlink:href="#m44e710c8a2" x="510.233937" y="47.41769" style="stroke: #000000"/>
     <use xlink:href="#m44e710c8a2" x="613.408051" y="96.17307" style="stroke: #000000"/>
    </g>
   </g>
   <g id="LineCollection_2">
    <path d="M 128.489715 162.964588 
L 128.489715 90.105837 
" clip-path="url(#p5267aa1ffe)" style="fill: none; stroke: #000000; stroke-width: 1.5"/>
    <path d="M 231.663829 193.4367 
L 231.663829 120.57795 
" clip-path="url(#p5267aa1ffe)" style="fill: none; stroke: #000000; stroke-width: 1.5"/>
    <path d="M 334.837943 266.56977 
L 334.837943 193.71102 
" clip-path="url(#p5267aa1ffe)" style="fill: none; stroke: #000000; stroke-width: 1.5"/>
    <path d="M 438.012057 169.05901 
L 438.012057 96.20026 
" clip-path="url(#p5267aa1ffe)" style="fill: none; stroke: #000000; stroke-width: 1.5"/>
    <path d="M 541.186171 114.209207 
L 541.186171 41.350457 
" clip-path="url(#p5267aa1ffe)" style="fill: none; stroke: #000000; stroke-width: 1.5"/>
    <path d="M 644.360285 187.342278 
L 644.360285 114.483527 
" clip-path="url(#p5267aa1ffe)" style="fill: none; stroke: #000000; stroke-width: 1.5"/>
   </g>
   <g id="line2d_15">
    <g clip-path="url(#p5267aa1ffe)">
     <use xlink:href="#m44e710c8a2" x="128.489715" y="162.964588" style="stroke: #000000"/>
     <use xlink:href="#m44e710c8a2" x="231.663829" y="193.4367" style="stroke: #000000"/>
     <use xlink:href="#m44e710c8a2" x="334.837943" y="266.56977" style="stroke: #000000"/>
     <use xlink:href="#m44e710c8a2" x="438.012057" y="169.05901" style="stroke: #000000"/>
     <use xlink:href="#m44e710c8a2" x="541.186171" y="114.209207" style="stroke: #000000"/>
     <use xlink:href="#m44e710c8a2" x="644.360285" y="187.342278" style="stroke: #000000"/>
    </g>
   </g>
   <g id="line2d_16">
    <g clip-path="url(#p5267aa1ffe)">
     <use xlink:href="#m44e710c8a2" x="128.489715" y="90.105837" style="stroke: #000000"/>
     <use xlink:href="#m44e710c8a2" x="231.663829" y="120.57795" style="stroke: #000000"/>
     <use xlink:href="#m44e710c8a2" x="334.837943" y="193.71102" style="stroke: #000000"/>
     <use xlink:href="#m44e710c8a2" x="438.012057" y="96.20026" style="stroke: #000000"/>
     <use xlink:href="#m44e710c8a2" x="541.186171" y="41.350457" style="stroke: #000000"/>
     <use xlink:href="#m44e710c8a2" x="644.360285" y="114.483527" style="stroke: #000000"/>
    </g>
   </g>
   <g id="LineCollection_3">
    <path d="M 159.441949 119.038858 
L 159.441949 36.520807 
" clip-path="url(#p5267aa1ffe)" style="fill: none; stroke: #000000; stroke-width: 1.5"/>
    <path d="M 262.616063 228.738463 
L 262.616063 146.220412 
" clip-path="url(#p5267aa1ffe)" style="fill: none; stroke: #000000; stroke-width: 1.5"/>
    <path d="M 365.790177 259.210575 
L 365.790177 176.692525 
" clip-path="url(#p5267aa1ffe)" style="fill: none; stroke: #000000; stroke-width: 1.5"/>
    <path d="M 468.964291 173.88866 
L 468.964291 91.370609 
" clip-path="url(#p5267aa1ffe)" style="fill: none; stroke: #000000; stroke-width: 1.5"/>
    <path d="M 572.138405 125.13328 
L 572.138405 42.615229 
" clip-path="url(#p5267aa1ffe)" style="fill: none; stroke: #000000; stroke-width: 1.5"/>
    <path d="M 675.312519 155.605393 
L 675.312519 73.087342 
" clip-path="url(#p5267aa1ffe)" style="fill: none; stroke: #000000; stroke-width: 1.5"/>
   </g>
   <g id="line2d_17">
    <g clip-path="url(#p5267aa1ffe)">
     <use xlink:href="#m44e710c8a2" x="159.441949" y="119.038858" style="stroke: #000000"/>
     <use xlink:href="#m44e710c8a2" x="262.616063" y="228.738463" style="stroke: #000000"/>
     <use xlink:href="#m44e710c8a2" x="365.790177" y="259.210575" style="stroke: #000000"/>
     <use xlink:href="#m44e710c8a2" x="468.964291" y="173.88866" style="stroke: #000000"/>
     <use xlink:href="#m44e710c8a2" x="572.138405" y="125.13328" style="stroke: #000000"/>
     <use xlink:href="#m44e710c8a2" x="675.312519" y="155.605393" style="stroke: #000000"/>
    </g>
   </g>
   <g id="line2d_18">
    <g clip-path="url(#p5267aa1ffe)">
     <use xlink:href="#m44e710c8a2" x="159.441949" y="36.520807" style="stroke: #000000"/>
     <use xlink:href="#m44e710c8a2" x="262.616063" y="146.220412" style="stroke: #000000"/>
     <use xlink:href="#m44e710c8a2" x="365.790177" y="176.692525" style="stroke: #000000"/>
     <use xlink:href="#m44e710c8a2" x="468.964291" y="91.370609" style="stroke: #000000"/>
     <use xlink:href="#m44e710c8a2" x="572.138405" y="42.615229" style="stroke: #000000"/>
     <use xlink:href="#m44e710c8a2" x="675.312519" y="73.087342" style="stroke: #000000"/>
    </g>
   </g>
   <g id="patch_21">
    <path d="M 51.625 339.84 
L 51.625 7.2 
" style="fill: none; stroke: #000000; stroke-width: 0.8; stroke-linejoin: miter; stroke-linecap: square"/>
   </g>
   <g id="patch_22">
    <path d="M 721.225 339.84 
L 721.225 7.2 
" style="fill: none; stroke: #000000; stroke-width: 0.8; stroke-linejoin: miter; stroke-linecap: square"/>
   </g>
   <g id="patch_23">
    <path d="M 51.625 339.84 
L 721.225 339.84 
" style="fill: none; stroke: #000000; stroke-width: 0.8; stroke-linejoin: miter; stroke-linecap: square"/>
   </g>
   <g id="patch_24">
    <path d="M 51.625 7.2 
L 721.225 7.2 
" style="fill: none; stroke: #000000; stroke-width: 0.8; stroke-linejoin: miter; stroke-linecap: square"/>
   </g>
   <g id="legend_1">
    <g id="patch_25">
     <path d="M 332.422188 80.048125 
L 440.427813 80.048125 
Q 443.227813 80.048125 443.227813 77.248125 
L 443.227813 17 
Q 443.227813 14.2 440.427813 14.2 
L 332.422188 14.2 
Q 329.622187 14.2 329.622187 17 
L 329.622187 77.248125 
Q 329.622187 80.048125 332.422188 80.048125 
z
" style="fill: #ffffff; opacity: 0.8; stroke: #cccccc; stroke-linejoin: miter"/>
    </g>
    <g id="patch_26">
     <path d="M 335.222188 30.437812 
L 363.222188 30.437812 
L 363.222188 20.637812 
L 335.222188 20.637812 
z
" style="fill: url(#h2f65c7ba62); stroke: #000000; stroke-linejoin: miter"/>
    </g>
    <g id="text_15">
     <!-- Shape -->
     <g transform="translate(374.422188 30.437812) scale(0.14 -0.14)">
      <defs>
       <path id="DejaVuSans-53" d="M 3425 4513 
L 3425 3897 
Q 3066 4069 2747 4153 
Q 2428 4238 2131 4238 
Q 1616 4238 1336 4038 
Q 1056 3838 1056 3469 
Q 1056 3159 1242 3001 
Q 1428 2844 1947 2747 
L 2328 2669 
Q 3034 2534 3370 2195 
Q 3706 1856 3706 1288 
Q 3706 609 3251 259 
Q 2797 -91 1919 -91 
Q 1588 -91 1214 -16 
Q 841 59 441 206 
L 441 856 
Q 825 641 1194 531 
Q 1563 422 1919 422 
Q 2459 422 2753 634 
Q 3047 847 3047 1241 
Q 3047 1584 2836 1778 
Q 2625 1972 2144 2069 
L 1759 2144 
Q 1053 2284 737 2584 
Q 422 2884 422 3419 
Q 422 4038 858 4394 
Q 1294 4750 2059 4750 
Q 2388 4750 2728 4690 
Q 3069 4631 3425 4513 
z
" transform="scale(0.015625)"/>
      </defs>
      <use xlink:href="#DejaVuSans-53"/>
      <use xlink:href="#DejaVuSans-68" x="63.476562"/>
      <use xlink:href="#DejaVuSans-61" x="126.855469"/>
      <use xlink:href="#DejaVuSans-70" x="188.134766"/>
      <use xlink:href="#DejaVuSans-65" x="251.611328"/>
     </g>
    </g>
    <g id="patch_27">
     <path d="M 335.222188 50.987187 
L 363.222188 50.987187 
L 363.222188 41.187187 
L 335.222188 41.187187 
z
" style="fill: url(#h1a6f00dbd7); stroke: #000000; stroke-linejoin: miter"/>
    </g>
    <g id="text_16">
     <!-- Highlight -->
     <g transform="translate(374.422188 50.987187) scale(0.14 -0.14)">
      <defs>
       <path id="DejaVuSans-48" d="M 628 4666 
L 1259 4666 
L 1259 2753 
L 3553 2753 
L 3553 4666 
L 4184 4666 
L 4184 0 
L 3553 0 
L 3553 2222 
L 1259 2222 
L 1259 0 
L 628 0 
L 628 4666 
z
" transform="scale(0.015625)"/>
       <path id="DejaVuSans-67" d="M 2906 1791 
Q 2906 2416 2648 2759 
Q 2391 3103 1925 3103 
Q 1463 3103 1205 2759 
Q 947 2416 947 1791 
Q 947 1169 1205 825 
Q 1463 481 1925 481 
Q 2391 481 2648 825 
Q 2906 1169 2906 1791 
z
M 3481 434 
Q 3481 -459 3084 -895 
Q 2688 -1331 1869 -1331 
Q 1566 -1331 1297 -1286 
Q 1028 -1241 775 -1147 
L 775 -588 
Q 1028 -725 1275 -790 
Q 1522 -856 1778 -856 
Q 2344 -856 2625 -561 
Q 2906 -266 2906 331 
L 2906 616 
Q 2728 306 2450 153 
Q 2172 0 1784 0 
Q 1141 0 747 490 
Q 353 981 353 1791 
Q 353 2603 747 3093 
Q 1141 3584 1784 3584 
Q 2172 3584 2450 3431 
Q 2728 3278 2906 2969 
L 2906 3500 
L 3481 3500 
L 3481 434 
z
" transform="scale(0.015625)"/>
      </defs>
      <use xlink:href="#DejaVuSans-48"/>
      <use xlink:href="#DejaVuSans-69" x="75.195312"/>
      <use xlink:href="#DejaVuSans-67" x="102.978516"/>
      <use xlink:href="#DejaVuSans-68" x="166.455078"/>
      <use xlink:href="#DejaVuSans-6c" x="229.833984"/>
      <use xlink:href="#DejaVuSans-69" x="257.617188"/>
      <use xlink:href="#DejaVuSans-67" x="285.400391"/>
      <use xlink:href="#DejaVuSans-68" x="348.876953"/>
      <use xlink:href="#DejaVuSans-74" x="412.255859"/>
     </g>
    </g>
    <g id="patch_28">
     <path d="M 335.222188 71.536562 
L 363.222188 71.536562 
L 363.222188 61.736562 
L 335.222188 61.736562 
z
" style="fill: url(#h8dc022a8d7); stroke: #000000; stroke-linejoin: miter"/>
    </g>
    <g id="text_17">
     <!-- Lasso -->
     <g transform="translate(374.422188 71.536562) scale(0.14 -0.14)">
      <defs>
       <path id="DejaVuSans-4c" d="M 628 4666 
L 1259 4666 
L 1259 531 
L 3531 531 
L 3531 0 
L 628 0 
L 628 4666 
z
" transform="scale(0.015625)"/>
      </defs>
      <use xlink:href="#DejaVuSans-4c"/>
      <use xlink:href="#DejaVuSans-61" x="55.712891"/>
      <use xlink:href="#DejaVuSans-73" x="116.992188"/>
      <use xlink:href="#DejaVuSans-73" x="169.091797"/>
      <use xlink:href="#DejaVuSans-6f" x="221.191406"/>
     </g>
    </g>
   </g>
  </g>
 </g>
 <defs>
  <clipPath id="p5267aa1ffe">
   <rect x="51.625" y="7.2" width="669.6" height="332.64"/>
  </clipPath>
 </defs>
 <defs>
  <pattern id="h2f65c7ba62" patternUnits="userSpaceOnUse" x="0" y="0" width="72" height="72">
   <rect x="0" y="0" width="73" height="73" fill="#fafafa"/>
   <path d="M -36 36 
L 36 -36 
M -32 40 
L 40 -32 
M -28 44 
L 44 -28 
M -24 48 
L 48 -24 
M -20 52 
L 52 -20 
M -16 56 
L 56 -16 
M -12 60 
L 60 -12 
M -8 64 
L 64 -8 
M -4 68 
L 68 -4 
M 0 72 
L 72 0 
M 4 76 
L 76 4 
M 8 80 
L 80 8 
M 12 84 
L 84 12 
M 16 88 
L 88 16 
M 20 92 
L 92 20 
M 24 96 
L 96 24 
M 28 100 
L 100 28 
M 32 104 
L 104 32 
M 36 108 
L 108 36 
" style="fill: #000000; stroke: #000000; stroke-width: 1.0; stroke-linecap: butt; stroke-linejoin: miter"/>
  </pattern>
  <pattern id="h1a6f00dbd7" patternUnits="userSpaceOnUse" x="0" y="0" width="72" height="72">
   <rect x="0" y="0" width="73" height="73" fill="#c8c8c8"/>
   <path d="M 0 73.2 
C 0.318244 73.2 0.623496 73.07356 0.848528 72.848528 
C 1.07356 72.623496 1.2 72.318244 1.2 72 
C 1.2 71.681756 1.07356 71.376504 0.848528 71.151472 
C 0.623496 70.92644 0.318244 70.8 0 70.8 
C -0.318244 70.8 -0.623496 70.92644 -0.848528 71.151472 
C -1.07356 71.376504 -1.2 71.681756 -1.2 72 
C -1.2 72.318244 -1.07356 72.623496 -0.848528 72.848528 
C -0.623496 73.07356 -0.318244 73.2 0 73.2 
z
M 12 73.2 
C 12.318244 73.2 12.623496 73.07356 12.848528 72.848528 
C 13.07356 72.623496 13.2 72.318244 13.2 72 
C 13.2 71.681756 13.07356 71.376504 12.848528 71.151472 
C 12.623496 70.92644 12.318244 70.8 12 70.8 
C 11.681756 70.8 11.376504 70.92644 11.151472 71.151472 
C 10.92644 71.376504 10.8 71.681756 10.8 72 
C 10.8 72.318244 10.92644 72.623496 11.151472 72.848528 
C 11.376504 73.07356 11.681756 73.2 12 73.2 
z
M 24 73.2 
C 24.318244 73.2 24.623496 73.07356 24.848528 72.848528 
C 25.07356 72.623496 25.2 72.318244 25.2 72 
C 25.2 71.681756 25.07356 71.376504 24.848528 71.151472 
C 24.623496 70.92644 24.318244 70.8 24 70.8 
C 23.681756 70.8 23.376504 70.92644 23.151472 71.151472 
C 22.92644 71.376504 22.8 71.681756 22.8 72 
C 22.8 72.318244 22.92644 72.623496 23.151472 72.848528 
C 23.376504 73.07356 23.681756 73.2 24 73.2 
z
M 36 73.2 
C 36.318244 73.2 36.623496 73.07356 36.848528 72.848528 
C 37.07356 72.623496 37.2 72.318244 37.2 72 
C 37.2 71.681756 37.07356 71.376504 36.848528 71.151472 
C 36.623496 70.92644 36.318244 70.8 36 70.8 
C 35.681756 70.8 35.376504 70.92644 35.151472 71.151472 
C 34.92644 71.376504 34.8 71.681756 34.8 72 
C 34.8 72.318244 34.92644 72.623496 35.151472 72.848528 
C 35.376504 73.07356 35.681756 73.2 36 73.2 
z
M 48 73.2 
C 48.318244 73.2 48.623496 73.07356 48.848528 72.848528 
C 49.07356 72.623496 49.2 72.318244 49.2 72 
C 49.2 71.681756 49.07356 71.376504 48.848528 71.151472 
C 48.623496 70.92644 48.318244 70.8 48 70.8 
C 47.681756 70.8 47.376504 70.92644 47.151472 71.151472 
C 46.92644 71.376504 46.8 71.681756 46.8 72 
C 46.8 72.318244 46.92644 72.623496 47.151472 72.848528 
C 47.376504 73.07356 47.681756 73.2 48 73.2 
z
M 60 73.2 
C 60.318244 73.2 60.623496 73.07356 60.848528 72.848528 
C 61.07356 72.623496 61.2 72.318244 61.2 72 
C 61.2 71.681756 61.07356 71.376504 60.848528 71.151472 
C 60.623496 70.92644 60.318244 70.8 60 70.8 
C 59.681756 70.8 59.376504 70.92644 59.151472 71.151472 
C 58.92644 71.376504 58.8 71.681756 58.8 72 
C 58.8 72.318244 58.92644 72.623496 59.151472 72.848528 
C 59.376504 73.07356 59.681756 73.2 60 73.2 
z
M 72 73.2 
C 72.318244 73.2 72.623496 73.07356 72.848528 72.848528 
C 73.07356 72.623496 73.2 72.318244 73.2 72 
C 73.2 71.681756 73.07356 71.376504 72.848528 71.151472 
C 72.623496 70.92644 72.318244 70.8 72 70.8 
C 71.681756 70.8 71.376504 70.92644 71.151472 71.151472 
C 70.92644 71.376504 70.8 71.681756 70.8 72 
C 70.8 72.318244 70.92644 72.623496 71.151472 72.848528 
C 71.376504 73.07356 71.681756 73.2 72 73.2 
z
M 6 61.2 
C 6.318244 61.2 6.623496 61.07356 6.848528 60.848528 
C 7.07356 60.623496 7.2 60.318244 7.2 60 
C 7.2 59.681756 7.07356 59.376504 6.848528 59.151472 
C 6.623496 58.92644 6.318244 58.8 6 58.8 
C 5.681756 58.8 5.376504 58.92644 5.151472 59.151472 
C 4.92644 59.376504 4.8 59.681756 4.8 60 
C 4.8 60.318244 4.92644 60.623496 5.151472 60.848528 
C 5.376504 61.07356 5.681756 61.2 6 61.2 
z
M 18 61.2 
C 18.318244 61.2 18.623496 61.07356 18.848528 60.848528 
C 19.07356 60.623496 19.2 60.318244 19.2 60 
C 19.2 59.681756 19.07356 59.376504 18.848528 59.151472 
C 18.623496 58.92644 18.318244 58.8 18 58.8 
C 17.681756 58.8 17.376504 58.92644 17.151472 59.151472 
C 16.92644 59.376504 16.8 59.681756 16.8 60 
C 16.8 60.318244 16.92644 60.623496 17.151472 60.848528 
C 17.376504 61.07356 17.681756 61.2 18 61.2 
z
M 30 61.2 
C 30.318244 61.2 30.623496 61.07356 30.848528 60.848528 
C 31.07356 60.623496 31.2 60.318244 31.2 60 
C 31.2 59.681756 31.07356 59.376504 30.848528 59.151472 
C 30.623496 58.92644 30.318244 58.8 30 58.8 
C 29.681756 58.8 29.376504 58.92644 29.151472 59.151472 
C 28.92644 59.376504 28.8 59.681756 28.8 60 
C 28.8 60.318244 28.92644 60.623496 29.151472 60.848528 
C 29.376504 61.07356 29.681756 61.2 30 61.2 
z
M 42 61.2 
C 42.318244 61.2 42.623496 61.07356 42.848528 60.848528 
C 43.07356 60.623496 43.2 60.318244 43.2 60 
C 43.2 59.681756 43.07356 59.376504 42.848528 59.151472 
C 42.623496 58.92644 42.318244 58.8 42 58.8 
C 41.681756 58.8 41.376504 58.92644 41.151472 59.151472 
C 40.92644 59.376504 40.8 59.681756 40.8 60 
C 40.8 60.318244 40.92644 60.623496 41.151472 60.848528 
C 41.376504 61.07356 41.681756 61.2 42 61.2 
z
M 54 61.2 
C 54.318244 61.2 54.623496 61.07356 54.848528 60.848528 
C 55.07356 60.623496 55.2 60.318244 55.2 60 
C 55.2 59.681756 55.07356 59.376504 54.848528 59.151472 
C 54.623496 58.92644 54.318244 58.8 54 58.8 
C 53.681756 58.8 53.376504 58.92644 53.151472 59.151472 
C 52.92644 59.376504 52.8 59.681756 52.8 60 
C 52.8 60.318244 52.92644 60.623496 53.151472 60.848528 
C 53.376504 61.07356 53.681756 61.2 54 61.2 
z
M 66 61.2 
C 66.318244 61.2 66.623496 61.07356 66.848528 60.848528 
C 67.07356 60.623496 67.2 60.318244 67.2 60 
C 67.2 59.681756 67.07356 59.376504 66.848528 59.151472 
C 66.623496 58.92644 66.318244 58.8 66 58.8 
C 65.681756 58.8 65.376504 58.92644 65.151472 59.151472 
C 64.92644 59.376504 64.8 59.681756 64.8 60 
C 64.8 60.318244 64.92644 60.623496 65.151472 60.848528 
C 65.376504 61.07356 65.681756 61.2 66 61.2 
z
M 0 49.2 
C 0.318244 49.2 0.623496 49.07356 0.848528 48.848528 
C 1.07356 48.623496 1.2 48.318244 1.2 48 
C 1.2 47.681756 1.07356 47.376504 0.848528 47.151472 
C 0.623496 46.92644 0.318244 46.8 0 46.8 
C -0.318244 46.8 -0.623496 46.92644 -0.848528 47.151472 
C -1.07356 47.376504 -1.2 47.681756 -1.2 48 
C -1.2 48.318244 -1.07356 48.623496 -0.848528 48.848528 
C -0.623496 49.07356 -0.318244 49.2 0 49.2 
z
M 12 49.2 
C 12.318244 49.2 12.623496 49.07356 12.848528 48.848528 
C 13.07356 48.623496 13.2 48.318244 13.2 48 
C 13.2 47.681756 13.07356 47.376504 12.848528 47.151472 
C 12.623496 46.92644 12.318244 46.8 12 46.8 
C 11.681756 46.8 11.376504 46.92644 11.151472 47.151472 
C 10.92644 47.376504 10.8 47.681756 10.8 48 
C 10.8 48.318244 10.92644 48.623496 11.151472 48.848528 
C 11.376504 49.07356 11.681756 49.2 12 49.2 
z
M 24 49.2 
C 24.318244 49.2 24.623496 49.07356 24.848528 48.848528 
C 25.07356 48.623496 25.2 48.318244 25.2 48 
C 25.2 47.681756 25.07356 47.376504 24.848528 47.151472 
C 24.623496 46.92644 24.318244 46.8 24 46.8 
C 23.681756 46.8 23.376504 46.92644 23.151472 47.151472 
C 22.92644 47.376504 22.8 47.681756 22.8 48 
C 22.8 48.318244 22.92644 48.623496 23.151472 48.848528 
C 23.376504 49.07356 23.681756 49.2 24 49.2 
z
M 36 49.2 
C 36.318244 49.2 36.623496 49.07356 36.848528 48.848528 
C 37.07356 48.623496 37.2 48.318244 37.2 48 
C 37.2 47.681756 37.07356 47.376504 36.848528 47.151472 
C 36.623496 46.92644 36.318244 46.8 36 46.8 
C 35.681756 46.8 35.376504 46.92644 35.151472 47.151472 
C 34.92644 47.376504 34.8 47.681756 34.8 48 
C 34.8 48.318244 34.92644 48.623496 35.151472 48.848528 
C 35.376504 49.07356 35.681756 49.2 36 49.2 
z
M 48 49.2 
C 48.318244 49.2 48.623496 49.07356 48.848528 48.848528 
C 49.07356 48.623496 49.2 48.318244 49.2 48 
C 49.2 47.681756 49.07356 47.376504 48.848528 47.151472 
C 48.623496 46.92644 48.318244 46.8 48 46.8 
C 47.681756 46.8 47.376504 46.92644 47.151472 47.151472 
C 46.92644 47.376504 46.8 47.681756 46.8 48 
C 46.8 48.318244 46.92644 48.623496 47.151472 48.848528 
C 47.376504 49.07356 47.681756 49.2 48 49.2 
z
M 60 49.2 
C 60.318244 49.2 60.623496 49.07356 60.848528 48.848528 
C 61.07356 48.623496 61.2 48.318244 61.2 48 
C 61.2 47.681756 61.07356 47.376504 60.848528 47.151472 
C 60.623496 46.92644 60.318244 46.8 60 46.8 
C 59.681756 46.8 59.376504 46.92644 59.151472 47.151472 
C 58.92644 47.376504 58.8 47.681756 58.8 48 
C 58.8 48.318244 58.92644 48.623496 59.151472 48.848528 
C 59.376504 49.07356 59.681756 49.2 60 49.2 
z
M 72 49.2 
C 72.318244 49.2 72.623496 49.07356 72.848528 48.848528 
C 73.07356 48.623496 73.2 48.318244 73.2 48 
C 73.2 47.681756 73.07356 47.376504 72.848528 47.151472 
C 72.623496 46.92644 72.318244 46.8 72 46.8 
C 71.681756 46.8 71.376504 46.92644 71.151472 47.151472 
C 70.92644 47.376504 70.8 47.681756 70.8 48 
C 70.8 48.318244 70.92644 48.623496 71.151472 48.848528 
C 71.376504 49.07356 71.681756 49.2 72 49.2 
z
M 6 37.2 
C 6.318244 37.2 6.623496 37.07356 6.848528 36.848528 
C 7.07356 36.623496 7.2 36.318244 7.2 36 
C 7.2 35.681756 7.07356 35.376504 6.848528 35.151472 
C 6.623496 34.92644 6.318244 34.8 6 34.8 
C 5.681756 34.8 5.376504 34.92644 5.151472 35.151472 
C 4.92644 35.376504 4.8 35.681756 4.8 36 
C 4.8 36.318244 4.92644 36.623496 5.151472 36.848528 
C 5.376504 37.07356 5.681756 37.2 6 37.2 
z
M 18 37.2 
C 18.318244 37.2 18.623496 37.07356 18.848528 36.848528 
C 19.07356 36.623496 19.2 36.318244 19.2 36 
C 19.2 35.681756 19.07356 35.376504 18.848528 35.151472 
C 18.623496 34.92644 18.318244 34.8 18 34.8 
C 17.681756 34.8 17.376504 34.92644 17.151472 35.151472 
C 16.92644 35.376504 16.8 35.681756 16.8 36 
C 16.8 36.318244 16.92644 36.623496 17.151472 36.848528 
C 17.376504 37.07356 17.681756 37.2 18 37.2 
z
M 30 37.2 
C 30.318244 37.2 30.623496 37.07356 30.848528 36.848528 
C 31.07356 36.623496 31.2 36.318244 31.2 36 
C 31.2 35.681756 31.07356 35.376504 30.848528 35.151472 
C 30.623496 34.92644 30.318244 34.8 30 34.8 
C 29.681756 34.8 29.376504 34.92644 29.151472 35.151472 
C 28.92644 35.376504 28.8 35.681756 28.8 36 
C 28.8 36.318244 28.92644 36.623496 29.151472 36.848528 
C 29.376504 37.07356 29.681756 37.2 30 37.2 
z
M 42 37.2 
C 42.318244 37.2 42.623496 37.07356 42.848528 36.848528 
C 43.07356 36.623496 43.2 36.318244 43.2 36 
C 43.2 35.681756 43.07356 35.376504 42.848528 35.151472 
C 42.623496 34.92644 42.318244 34.8 42 34.8 
C 41.681756 34.8 41.376504 34.92644 41.151472 35.151472 
C 40.92644 35.376504 40.8 35.681756 40.8 36 
C 40.8 36.318244 40.92644 36.623496 41.151472 36.848528 
C 41.376504 37.07356 41.681756 37.2 42 37.2 
z
M 54 37.2 
C 54.318244 37.2 54.623496 37.07356 54.848528 36.848528 
C 55.07356 36.623496 55.2 36.318244 55.2 36 
C 55.2 35.681756 55.07356 35.376504 54.848528 35.151472 
C 54.623496 34.92644 54.318244 34.8 54 34.8 
C 53.681756 34.8 53.376504 34.92644 53.151472 35.151472 
C 52.92644 35.376504 52.8 35.681756 52.8 36 
C 52.8 36.318244 52.92644 36.623496 53.151472 36.848528 
C 53.376504 37.07356 53.681756 37.2 54 37.2 
z
M 66 37.2 
C 66.318244 37.2 66.623496 37.07356 66.848528 36.848528 
C 67.07356 36.623496 67.2 36.318244 67.2 36 
C 67.2 35.681756 67.07356 35.376504 66.848528 35.151472 
C 66.623496 34.92644 66.318244 34.8 66 34.8 
C 65.681756 34.8 65.376504 34.92644 65.151472 35.151472 
C 64.92644 35.376504 64.8 35.681756 64.8 36 
C 64.8 36.318244 64.92644 36.623496 65.151472 36.848528 
C 65.376504 37.07356 65.681756 37.2 66 37.2 
z
M 0 25.2 
C 0.318244 25.2 0.623496 25.07356 0.848528 24.848528 
C 1.07356 24.623496 1.2 24.318244 1.2 24 
C 1.2 23.681756 1.07356 23.376504 0.848528 23.151472 
C 0.623496 22.92644 0.318244 22.8 0 22.8 
C -0.318244 22.8 -0.623496 22.92644 -0.848528 23.151472 
C -1.07356 23.376504 -1.2 23.681756 -1.2 24 
C -1.2 24.318244 -1.07356 24.623496 -0.848528 24.848528 
C -0.623496 25.07356 -0.318244 25.2 0 25.2 
z
M 12 25.2 
C 12.318244 25.2 12.623496 25.07356 12.848528 24.848528 
C 13.07356 24.623496 13.2 24.318244 13.2 24 
C 13.2 23.681756 13.07356 23.376504 12.848528 23.151472 
C 12.623496 22.92644 12.318244 22.8 12 22.8 
C 11.681756 22.8 11.376504 22.92644 11.151472 23.151472 
C 10.92644 23.376504 10.8 23.681756 10.8 24 
C 10.8 24.318244 10.92644 24.623496 11.151472 24.848528 
C 11.376504 25.07356 11.681756 25.2 12 25.2 
z
M 24 25.2 
C 24.318244 25.2 24.623496 25.07356 24.848528 24.848528 
C 25.07356 24.623496 25.2 24.318244 25.2 24 
C 25.2 23.681756 25.07356 23.376504 24.848528 23.151472 
C 24.623496 22.92644 24.318244 22.8 24 22.8 
C 23.681756 22.8 23.376504 22.92644 23.151472 23.151472 
C 22.92644 23.376504 22.8 23.681756 22.8 24 
C 22.8 24.318244 22.92644 24.623496 23.151472 24.848528 
C 23.376504 25.07356 23.681756 25.2 24 25.2 
z
M 36 25.2 
C 36.318244 25.2 36.623496 25.07356 36.848528 24.848528 
C 37.07356 24.623496 37.2 24.318244 37.2 24 
C 37.2 23.681756 37.07356 23.376504 36.848528 23.151472 
C 36.623496 22.92644 36.318244 22.8 36 22.8 
C 35.681756 22.8 35.376504 22.92644 35.151472 23.151472 
C 34.92644 23.376504 34.8 23.681756 34.8 24 
C 34.8 24.318244 34.92644 24.623496 35.151472 24.848528 
C 35.376504 25.07356 35.681756 25.2 36 25.2 
z
M 48 25.2 
C 48.318244 25.2 48.623496 25.07356 48.848528 24.848528 
C 49.07356 24.623496 49.2 24.318244 49.2 24 
C 49.2 23.681756 49.07356 23.376504 48.848528 23.151472 
C 48.623496 22.92644 48.318244 22.8 48 22.8 
C 47.681756 22.8 47.376504 22.92644 47.151472 23.151472 
C 46.92644 23.376504 46.8 23.681756 46.8 24 
C 46.8 24.318244 46.92644 24.623496 47.151472 24.848528 
C 47.376504 25.07356 47.681756 25.2 48 25.2 
z
M 60 25.2 
C 60.318244 25.2 60.623496 25.07356 60.848528 24.848528 
C 61.07356 24.623496 61.2 24.318244 61.2 24 
C 61.2 23.681756 61.07356 23.376504 60.848528 23.151472 
C 60.623496 22.92644 60.318244 22.8 60 22.8 
C 59.681756 22.8 59.376504 22.92644 59.151472 23.151472 
C 58.92644 23.376504 58.8 23.681756 58.8 24 
C 58.8 24.318244 58.92644 24.623496 59.151472 24.848528 
C 59.376504 25.07356 59.681756 25.2 60 25.2 
z
M 72 25.2 
C 72.318244 25.2 72.623496 25.07356 72.848528 24.848528 
C 73.07356 24.623496 73.2 24.318244 73.2 24 
C 73.2 23.681756 73.07356 23.376504 72.848528 23.151472 
C 72.623496 22.92644 72.318244 22.8 72 22.8 
C 71.681756 22.8 71.376504 22.92644 71.151472 23.151472 
C 70.92644 23.376504 70.8 23.681756 70.8 24 
C 70.8 24.318244 70.92644 24.623496 71.151472 24.848528 
C 71.376504 25.07356 71.681756 25.2 72 25.2 
z
M 6 13.2 
C 6.318244 13.2 6.623496 13.07356 6.848528 12.848528 
C 7.07356 12.623496 7.2 12.318244 7.2 12 
C 7.2 11.681756 7.07356 11.376504 6.848528 11.151472 
C 6.623496 10.92644 6.318244 10.8 6 10.8 
C 5.681756 10.8 5.376504 10.92644 5.151472 11.151472 
C 4.92644 11.376504 4.8 11.681756 4.8 12 
C 4.8 12.318244 4.92644 12.623496 5.151472 12.848528 
C 5.376504 13.07356 5.681756 13.2 6 13.2 
z
M 18 13.2 
C 18.318244 13.2 18.623496 13.07356 18.848528 12.848528 
C 19.07356 12.623496 19.2 12.318244 19.2 12 
C 19.2 11.681756 19.07356 11.376504 18.848528 11.151472 
C 18.623496 10.92644 18.318244 10.8 18 10.8 
C 17.681756 10.8 17.376504 10.92644 17.151472 11.151472 
C 16.92644 11.376504 16.8 11.681756 16.8 12 
C 16.8 12.318244 16.92644 12.623496 17.151472 12.848528 
C 17.376504 13.07356 17.681756 13.2 18 13.2 
z
M 30 13.2 
C 30.318244 13.2 30.623496 13.07356 30.848528 12.848528 
C 31.07356 12.623496 31.2 12.318244 31.2 12 
C 31.2 11.681756 31.07356 11.376504 30.848528 11.151472 
C 30.623496 10.92644 30.318244 10.8 30 10.8 
C 29.681756 10.8 29.376504 10.92644 29.151472 11.151472 
C 28.92644 11.376504 28.8 11.681756 28.8 12 
C 28.8 12.318244 28.92644 12.623496 29.151472 12.848528 
C 29.376504 13.07356 29.681756 13.2 30 13.2 
z
M 42 13.2 
C 42.318244 13.2 42.623496 13.07356 42.848528 12.848528 
C 43.07356 12.623496 43.2 12.318244 43.2 12 
C 43.2 11.681756 43.07356 11.376504 42.848528 11.151472 
C 42.623496 10.92644 42.318244 10.8 42 10.8 
C 41.681756 10.8 41.376504 10.92644 41.151472 11.151472 
C 40.92644 11.376504 40.8 11.681756 40.8 12 
C 40.8 12.318244 40.92644 12.623496 41.151472 12.848528 
C 41.376504 13.07356 41.681756 13.2 42 13.2 
z
M 54 13.2 
C 54.318244 13.2 54.623496 13.07356 54.848528 12.848528 
C 55.07356 12.623496 55.2 12.318244 55.2 12 
C 55.2 11.681756 55.07356 11.376504 54.848528 11.151472 
C 54.623496 10.92644 54.318244 10.8 54 10.8 
C 53.681756 10.8 53.376504 10.92644 53.151472 11.151472 
C 52.92644 11.376504 52.8 11.681756 52.8 12 
C 52.8 12.318244 52.92644 12.623496 53.151472 12.848528 
C 53.376504 13.07356 53.681756 13.2 54 13.2 
z
M 66 13.2 
C 66.318244 13.2 66.623496 13.07356 66.848528 12.848528 
C 67.07356 12.623496 67.2 12.318244 67.2 12 
C 67.2 11.681756 67.07356 11.376504 66.848528 11.151472 
C 66.623496 10.92644 66.318244 10.8 66 10.8 
C 65.681756 10.8 65.376504 10.92644 65.151472 11.151472 
C 64.92644 11.376504 64.8 11.681756 64.8 12 
C 64.8 12.318244 64.92644 12.623496 65.151472 12.848528 
C 65.376504 13.07356 65.681756 13.2 66 13.2 
z
M 0 1.2 
C 0.318244 1.2 0.623496 1.07356 0.848528 0.848528 
C 1.07356 0.623496 1.2 0.318244 1.2 0 
C 1.2 -0.318244 1.07356 -0.623496 0.848528 -0.848528 
C 0.623496 -1.07356 0.318244 -1.2 0 -1.2 
C -0.318244 -1.2 -0.623496 -1.07356 -0.848528 -0.848528 
C -1.07356 -0.623496 -1.2 -0.318244 -1.2 0 
C -1.2 0.318244 -1.07356 0.623496 -0.848528 0.848528 
C -0.623496 1.07356 -0.318244 1.2 0 1.2 
z
M 12 1.2 
C 12.318244 1.2 12.623496 1.07356 12.848528 0.848528 
C 13.07356 0.623496 13.2 0.318244 13.2 0 
C 13.2 -0.318244 13.07356 -0.623496 12.848528 -0.848528 
C 12.623496 -1.07356 12.318244 -1.2 12 -1.2 
C 11.681756 -1.2 11.376504 -1.07356 11.151472 -0.848528 
C 10.92644 -0.623496 10.8 -0.318244 10.8 0 
C 10.8 0.318244 10.92644 0.623496 11.151472 0.848528 
C 11.376504 1.07356 11.681756 1.2 12 1.2 
z
M 24 1.2 
C 24.318244 1.2 24.623496 1.07356 24.848528 0.848528 
C 25.07356 0.623496 25.2 0.318244 25.2 0 
C 25.2 -0.318244 25.07356 -0.623496 24.848528 -0.848528 
C 24.623496 -1.07356 24.318244 -1.2 24 -1.2 
C 23.681756 -1.2 23.376504 -1.07356 23.151472 -0.848528 
C 22.92644 -0.623496 22.8 -0.318244 22.8 0 
C 22.8 0.318244 22.92644 0.623496 23.151472 0.848528 
C 23.376504 1.07356 23.681756 1.2 24 1.2 
z
M 36 1.2 
C 36.318244 1.2 36.623496 1.07356 36.848528 0.848528 
C 37.07356 0.623496 37.2 0.318244 37.2 0 
C 37.2 -0.318244 37.07356 -0.623496 36.848528 -0.848528 
C 36.623496 -1.07356 36.318244 -1.2 36 -1.2 
C 35.681756 -1.2 35.376504 -1.07356 35.151472 -0.848528 
C 34.92644 -0.623496 34.8 -0.318244 34.8 0 
C 34.8 0.318244 34.92644 0.623496 35.151472 0.848528 
C 35.376504 1.07356 35.681756 1.2 36 1.2 
z
M 48 1.2 
C 48.318244 1.2 48.623496 1.07356 48.848528 0.848528 
C 49.07356 0.623496 49.2 0.318244 49.2 0 
C 49.2 -0.318244 49.07356 -0.623496 48.848528 -0.848528 
C 48.623496 -1.07356 48.318244 -1.2 48 -1.2 
C 47.681756 -1.2 47.376504 -1.07356 47.151472 -0.848528 
C 46.92644 -0.623496 46.8 -0.318244 46.8 0 
C 46.8 0.318244 46.92644 0.623496 47.151472 0.848528 
C 47.376504 1.07356 47.681756 1.2 48 1.2 
z
M 60 1.2 
C 60.318244 1.2 60.623496 1.07356 60.848528 0.848528 
C 61.07356 0.623496 61.2 0.318244 61.2 0 
C 61.2 -0.318244 61.07356 -0.623496 60.848528 -0.848528 
C 60.623496 -1.07356 60.318244 -1.2 60 -1.2 
C 59.681756 -1.2 59.376504 -1.07356 59.151472 -0.848528 
C 58.92644 -0.623496 58.8 -0.318244 58.8 0 
C 58.8 0.318244 58.92644 0.623496 59.151472 0.848528 
C 59.376504 1.07356 59.681756 1.2 60 1.2 
z
M 72 1.2 
C 72.318244 1.2 72.623496 1.07356 72.848528 0.848528 
C 73.07356 0.623496 73.2 0.318244 73.2 0 
C 73.2 -0.318244 73.07356 -0.623496 72.848528 -0.848528 
C 72.623496 -1.07356 72.318244 -1.2 72 -1.2 
C 71.681756 -1.2 71.376504 -1.07356 71.151472 -0.848528 
C 70.92644 -0.623496 70.8 -0.318244 70.8 0 
C 70.8 0.318244 70.92644 0.623496 71.151472 0.848528 
C 71.376504 1.07356 71.681756 1.2 72 1.2 
z
" style="fill: #000000; stroke: #000000; stroke-width: 1.0; stroke-linecap: butt; stroke-linejoin: miter"/>
  </pattern>
  <pattern id="h8dc022a8d7" patternUnits="userSpaceOnUse" x="0" y="0" width="72" height="72">
   <rect x="0" y="0" width="73" height="73" fill="#969696"/>
   <path d="M -36 36 
L 36 108 
M -24 24 
L 48 96 
M -12 12 
L 60 84 
M 0 0 
L 72 72 
M 12 -12 
L 84 60 
M 24 -24 
L 96 48 
M 36 -36 
L 108 36 
" style="fill: #000000; stroke: #000000; stroke-width: 1.0; stroke-linecap: butt; stroke-linejoin: miter"/>
  </pattern>
 </defs>
</svg>
