<?xml version="1.0" encoding="utf-8" standalone="no"?>
<!DOCTYPE svg PUBLIC "-//W3C//DTD SVG 1.1//EN"
  "http://www.w3.org/Graphics/SVG/1.1/DTD/svg11.dtd">
<svg xmlns:xlink="http://www.w3.org/1999/xlink" width="732.780625pt" height="426.778625pt" viewBox="0 0 732.780625 426.778625" xmlns="http://www.w3.org/2000/svg" version="1.1">
 <metadata>
  <rdf:RDF xmlns:dc="http://purl.org/dc/elements/1.1/" xmlns:cc="http://creativecommons.org/ns#" xmlns:rdf="http://www.w3.org/1999/02/22-rdf-syntax-ns#">
   <cc:Work>
    <dc:type rdf:resource="http://purl.org/dc/dcmitype/StillImage"/>
    <dc:date>2023-12-08T14:47:31.690122</dc:date>
    <dc:format>image/svg+xml</dc:format>
    <dc:creator>
     <cc:Agent>
      <dc:title>Matplotlib v3.7.4, https://matplotlib.org/</dc:title>
     </cc:Agent>
    </dc:creator>
   </cc:Work>
  </rdf:RDF>
 </metadata>
 <defs>
  <style type="text/css">*{stroke-linejoin: round; stroke-linecap: butt}</style>
 </defs>
 <g id="figure_1">
  <g id="patch_1">
   <path d="M 0 426.778625 
L 732.780625 426.778625 
L 732.780625 0 
L 0 0 
z
" style="fill: #ffffff"/>
  </g>
  <g id="axes_1">
   <g id="patch_2">
    <path d="M 55.980625 339.84 
L 725.580625 339.84 
L 725.580625 7.2 
L 55.980625 7.2 
z
" style="fill: #ffffff"/>
   </g>
   <g id="patch_3">
    <path d="M 86.416989 339.84 
L 117.369223 339.84 
L 117.369223 71.77487 
L 86.416989 71.77487 
z
" clip-path="url(#pa8cb309720)" style="fill: url(#h038c98727e); stroke: #000000; stroke-linejoin: miter"/>
   </g>
   <g id="patch_4">
    <path d="M 189.591103 339.84 
L 220.543337 339.84 
L 220.543337 182.497424 
L 189.591103 182.497424 
z
" clip-path="url(#pa8cb309720)" style="fill: url(#h038c98727e); stroke: #000000; stroke-linejoin: miter"/>
   </g>
   <g id="patch_5">
    <path d="M 292.765217 339.84 
L 323.717451 339.84 
L 323.717451 194.152429 
L 292.765217 194.152429 
z
" clip-path="url(#pa8cb309720)" style="fill: url(#h038c98727e); stroke: #000000; stroke-linejoin: miter"/>
   </g>
   <g id="patch_6">
    <path d="M 395.939331 339.84 
L 426.891565 339.84 
L 426.891565 141.704904 
L 395.939331 141.704904 
z
" clip-path="url(#pa8cb309720)" style="fill: url(#h038c98727e); stroke: #000000; stroke-linejoin: miter"/>
   </g>
   <g id="patch_7">
    <path d="M 499.113445 339.84 
L 530.065679 339.84 
L 530.065679 95.084881 
L 499.113445 95.084881 
z
" clip-path="url(#pa8cb309720)" style="fill: url(#h038c98727e); stroke: #000000; stroke-linejoin: miter"/>
   </g>
   <g id="patch_8">
    <path d="M 602.287559 339.84 
L 633.239793 339.84 
L 633.239793 141.704904 
L 602.287559 141.704904 
z
" clip-path="url(#pa8cb309720)" style="fill: url(#h038c98727e); stroke: #000000; stroke-linejoin: miter"/>
   </g>
   <g id="patch_9">
    <path d="M 117.369223 339.84 
L 148.321457 339.84 
L 148.321457 135.877401 
L 117.369223 135.877401 
z
" clip-path="url(#pa8cb309720)" style="fill: url(#hba61389454); stroke: #000000; stroke-linejoin: miter"/>
   </g>
   <g id="patch_10">
    <path d="M 220.543337 339.84 
L 251.495571 339.84 
L 251.495571 165.014915 
L 220.543337 165.014915 
z
" clip-path="url(#pa8cb309720)" style="fill: url(#hba61389454); stroke: #000000; stroke-linejoin: miter"/>
   </g>
   <g id="patch_11">
    <path d="M 323.717451 339.84 
L 354.669685 339.84 
L 354.669685 234.944949 
L 323.717451 234.944949 
z
" clip-path="url(#pa8cb309720)" style="fill: url(#hba61389454); stroke: #000000; stroke-linejoin: miter"/>
   </g>
   <g id="patch_12">
    <path d="M 426.891565 339.84 
L 457.843799 339.84 
L 457.843799 141.704904 
L 426.891565 141.704904 
z
" clip-path="url(#pa8cb309720)" style="fill: url(#hba61389454); stroke: #000000; stroke-linejoin: miter"/>
   </g>
   <g id="patch_13">
    <path d="M 530.065679 339.84 
L 561.017913 339.84 
L 561.017913 89.257378 
L 530.065679 89.257378 
z
" clip-path="url(#pa8cb309720)" style="fill: url(#hba61389454); stroke: #000000; stroke-linejoin: miter"/>
   </g>
   <g id="patch_14">
    <path d="M 633.239793 339.84 
L 664.192027 339.84 
L 664.192027 159.187412 
L 633.239793 159.187412 
z
" clip-path="url(#pa8cb309720)" style="fill: url(#hba61389454); stroke: #000000; stroke-linejoin: miter"/>
   </g>
   <g id="patch_15">
    <path d="M 148.321457 339.84 
L 179.273691 339.84 
L 179.273691 89.257378 
L 148.321457 89.257378 
z
" clip-path="url(#pa8cb309720)" style="fill: url(#he54bce1fc4); stroke: #000000; stroke-linejoin: miter"/>
   </g>
   <g id="patch_16">
    <path d="M 251.495571 339.84 
L 282.447805 339.84 
L 282.447805 194.152429 
L 251.495571 194.152429 
z
" clip-path="url(#pa8cb309720)" style="fill: url(#he54bce1fc4); stroke: #000000; stroke-linejoin: miter"/>
   </g>
   <g id="patch_17">
    <path d="M 354.669685 339.84 
L 385.621919 339.84 
L 385.621919 223.289943 
L 354.669685 223.289943 
z
" clip-path="url(#pa8cb309720)" style="fill: url(#he54bce1fc4); stroke: #000000; stroke-linejoin: miter"/>
   </g>
   <g id="patch_18">
    <path d="M 457.843799 339.84 
L 488.796033 339.84 
L 488.796033 141.704904 
L 457.843799 141.704904 
z
" clip-path="url(#pa8cb309720)" style="fill: url(#he54bce1fc4); stroke: #000000; stroke-linejoin: miter"/>
   </g>
   <g id="patch_19">
    <path d="M 561.017913 339.84 
L 591.970147 339.84 
L 591.970147 95.084881 
L 561.017913 95.084881 
z
" clip-path="url(#pa8cb309720)" style="fill: url(#he54bce1fc4); stroke: #000000; stroke-linejoin: miter"/>
   </g>
   <g id="patch_20">
    <path d="M 664.192027 339.84 
L 695.144261 339.84 
L 695.144261 124.222395 
L 664.192027 124.222395 
z
" clip-path="url(#pa8cb309720)" style="fill: url(#he54bce1fc4); stroke: #000000; stroke-linejoin: miter"/>
   </g>
   <g id="matplotlib.axis_1">
    <g id="xtick_1">
     <g id="line2d_1">
      <defs>
       <path id="me1fc95b772" d="M 0 0 
L 0 3.5 
" style="stroke: #000000; stroke-width: 0.8"/>
      </defs>
      <g>
       <use xlink:href="#me1fc95b772" x="132.84534" y="339.84" style="stroke: #000000; stroke-width: 0.8"/>
      </g>
     </g>
     <g id="text_1">
      <!-- Mental -->
      <g transform="translate(105.68909 358.9975) scale(0.16 -0.16)">
       <defs>
        <path id="DejaVuSans-4d" d="M 628 4666 
L 1569 4666 
L 2759 1491 
L 3956 4666 
L 4897 4666 
L 4897 0 
L 4281 0 
L 4281 4097 
L 3078 897 
L 2444 897 
L 1241 4097 
L 1241 0 
L 628 0 
L 628 4666 
z
" transform="scale(0.015625)"/>
        <path id="DejaVuSans-65" d="M 3597 1894 
L 3597 1613 
L 953 1613 
Q 991 1019 1311 708 
Q 1631 397 2203 397 
Q 2534 397 2845 478 
Q 3156 559 3463 722 
L 3463 178 
Q 3153 47 2828 -22 
Q 2503 -91 2169 -91 
Q 1331 -91 842 396 
Q 353 884 353 1716 
Q 353 2575 817 3079 
Q 1281 3584 2069 3584 
Q 2775 3584 3186 3129 
Q 3597 2675 3597 1894 
z
M 3022 2063 
Q 3016 2534 2758 2815 
Q 2500 3097 2075 3097 
Q 1594 3097 1305 2825 
Q 1016 2553 972 2059 
L 3022 2063 
z
" transform="scale(0.015625)"/>
        <path id="DejaVuSans-6e" d="M 3513 2113 
L 3513 0 
L 2938 0 
L 2938 2094 
Q 2938 2591 2744 2837 
Q 2550 3084 2163 3084 
Q 1697 3084 1428 2787 
Q 1159 2491 1159 1978 
L 1159 0 
L 581 0 
L 581 3500 
L 1159 3500 
L 1159 2956 
Q 1366 3272 1645 3428 
Q 1925 3584 2291 3584 
Q 2894 3584 3203 3211 
Q 3513 2838 3513 2113 
z
" transform="scale(0.015625)"/>
        <path id="DejaVuSans-74" d="M 1172 4494 
L 1172 3500 
L 2356 3500 
L 2356 3053 
L 1172 3053 
L 1172 1153 
Q 1172 725 1289 603 
Q 1406 481 1766 481 
L 2356 481 
L 2356 0 
L 1766 0 
Q 1100 0 847 248 
Q 594 497 594 1153 
L 594 3053 
L 172 3053 
L 172 3500 
L 594 3500 
L 594 4494 
L 1172 4494 
z
" transform="scale(0.015625)"/>
        <path id="DejaVuSans-61" d="M 2194 1759 
Q 1497 1759 1228 1600 
Q 959 1441 959 1056 
Q 959 750 1161 570 
Q 1363 391 1709 391 
Q 2188 391 2477 730 
Q 2766 1069 2766 1631 
L 2766 1759 
L 2194 1759 
z
M 3341 1997 
L 3341 0 
L 2766 0 
L 2766 531 
Q 2569 213 2275 61 
Q 1981 -91 1556 -91 
Q 1019 -91 701 211 
Q 384 513 384 1019 
Q 384 1609 779 1909 
Q 1175 2209 1959 2209 
L 2766 2209 
L 2766 2266 
Q 2766 2663 2505 2880 
Q 2244 3097 1772 3097 
Q 1472 3097 1187 3025 
Q 903 2953 641 2809 
L 641 3341 
Q 956 3463 1253 3523 
Q 1550 3584 1831 3584 
Q 2591 3584 2966 3190 
Q 3341 2797 3341 1997 
z
" transform="scale(0.015625)"/>
        <path id="DejaVuSans-6c" d="M 603 4863 
L 1178 4863 
L 1178 0 
L 603 0 
L 603 4863 
z
" transform="scale(0.015625)"/>
       </defs>
       <use xlink:href="#DejaVuSans-4d"/>
       <use xlink:href="#DejaVuSans-65" x="86.279297"/>
       <use xlink:href="#DejaVuSans-6e" x="147.802734"/>
       <use xlink:href="#DejaVuSans-74" x="211.181641"/>
       <use xlink:href="#DejaVuSans-61" x="250.390625"/>
       <use xlink:href="#DejaVuSans-6c" x="311.669922"/>
      </g>
      <!-- Demand -->
      <g transform="translate(98.91909 376.914) scale(0.16 -0.16)">
       <defs>
        <path id="DejaVuSans-44" d="M 1259 4147 
L 1259 519 
L 2022 519 
Q 2988 519 3436 956 
Q 3884 1394 3884 2338 
Q 3884 3275 3436 3711 
Q 2988 4147 2022 4147 
L 1259 4147 
z
M 628 4666 
L 1925 4666 
Q 3281 4666 3915 4102 
Q 4550 3538 4550 2338 
Q 4550 1131 3912 565 
Q 3275 0 1925 0 
L 628 0 
L 628 4666 
z
" transform="scale(0.015625)"/>
        <path id="DejaVuSans-6d" d="M 3328 2828 
Q 3544 3216 3844 3400 
Q 4144 3584 4550 3584 
Q 5097 3584 5394 3201 
Q 5691 2819 5691 2113 
L 5691 0 
L 5113 0 
L 5113 2094 
Q 5113 2597 4934 2840 
Q 4756 3084 4391 3084 
Q 3944 3084 3684 2787 
Q 3425 2491 3425 1978 
L 3425 0 
L 2847 0 
L 2847 2094 
Q 2847 2600 2669 2842 
Q 2491 3084 2119 3084 
Q 1678 3084 1418 2786 
Q 1159 2488 1159 1978 
L 1159 0 
L 581 0 
L 581 3500 
L 1159 3500 
L 1159 2956 
Q 1356 3278 1631 3431 
Q 1906 3584 2284 3584 
Q 2666 3584 2933 3390 
Q 3200 3197 3328 2828 
z
" transform="scale(0.015625)"/>
        <path id="DejaVuSans-64" d="M 2906 2969 
L 2906 4863 
L 3481 4863 
L 3481 0 
L 2906 0 
L 2906 525 
Q 2725 213 2448 61 
Q 2172 -91 1784 -91 
Q 1150 -91 751 415 
Q 353 922 353 1747 
Q 353 2572 751 3078 
Q 1150 3584 1784 3584 
Q 2172 3584 2448 3432 
Q 2725 3281 2906 2969 
z
M 947 1747 
Q 947 1113 1208 752 
Q 1469 391 1925 391 
Q 2381 391 2643 752 
Q 2906 1113 2906 1747 
Q 2906 2381 2643 2742 
Q 2381 3103 1925 3103 
Q 1469 3103 1208 2742 
Q 947 2381 947 1747 
z
" transform="scale(0.015625)"/>
       </defs>
       <use xlink:href="#DejaVuSans-44"/>
       <use xlink:href="#DejaVuSans-65" x="77.001953"/>
       <use xlink:href="#DejaVuSans-6d" x="138.525391"/>
       <use xlink:href="#DejaVuSans-61" x="235.9375"/>
       <use xlink:href="#DejaVuSans-6e" x="297.216797"/>
       <use xlink:href="#DejaVuSans-64" x="360.595703"/>
      </g>
      <!--  -->
      <g transform="translate(132.84534 394.8305) scale(0.16 -0.16)"/>
     </g>
    </g>
    <g id="xtick_2">
     <g id="line2d_2">
      <g>
       <use xlink:href="#me1fc95b772" x="236.019454" y="339.84" style="stroke: #000000; stroke-width: 0.8"/>
      </g>
     </g>
     <g id="text_2">
      <!-- Physical -->
      <g transform="translate(203.476954 358.9975) scale(0.16 -0.16)">
       <defs>
        <path id="DejaVuSans-50" d="M 1259 4147 
L 1259 2394 
L 2053 2394 
Q 2494 2394 2734 2622 
Q 2975 2850 2975 3272 
Q 2975 3691 2734 3919 
Q 2494 4147 2053 4147 
L 1259 4147 
z
M 628 4666 
L 2053 4666 
Q 2838 4666 3239 4311 
Q 3641 3956 3641 3272 
Q 3641 2581 3239 2228 
Q 2838 1875 2053 1875 
L 1259 1875 
L 1259 0 
L 628 0 
L 628 4666 
z
" transform="scale(0.015625)"/>
        <path id="DejaVuSans-68" d="M 3513 2113 
L 3513 0 
L 2938 0 
L 2938 2094 
Q 2938 2591 2744 2837 
Q 2550 3084 2163 3084 
Q 1697 3084 1428 2787 
Q 1159 2491 1159 1978 
L 1159 0 
L 581 0 
L 581 4863 
L 1159 4863 
L 1159 2956 
Q 1366 3272 1645 3428 
Q 1925 3584 2291 3584 
Q 2894 3584 3203 3211 
Q 3513 2838 3513 2113 
z
" transform="scale(0.015625)"/>
        <path id="DejaVuSans-79" d="M 2059 -325 
Q 1816 -950 1584 -1140 
Q 1353 -1331 966 -1331 
L 506 -1331 
L 506 -850 
L 844 -850 
Q 1081 -850 1212 -737 
Q 1344 -625 1503 -206 
L 1606 56 
L 191 3500 
L 800 3500 
L 1894 763 
L 2988 3500 
L 3597 3500 
L 2059 -325 
z
" transform="scale(0.015625)"/>
        <path id="DejaVuSans-73" d="M 2834 3397 
L 2834 2853 
Q 2591 2978 2328 3040 
Q 2066 3103 1784 3103 
Q 1356 3103 1142 2972 
Q 928 2841 928 2578 
Q 928 2378 1081 2264 
Q 1234 2150 1697 2047 
L 1894 2003 
Q 2506 1872 2764 1633 
Q 3022 1394 3022 966 
Q 3022 478 2636 193 
Q 2250 -91 1575 -91 
Q 1294 -91 989 -36 
Q 684 19 347 128 
L 347 722 
Q 666 556 975 473 
Q 1284 391 1588 391 
Q 1994 391 2212 530 
Q 2431 669 2431 922 
Q 2431 1156 2273 1281 
Q 2116 1406 1581 1522 
L 1381 1569 
Q 847 1681 609 1914 
Q 372 2147 372 2553 
Q 372 3047 722 3315 
Q 1072 3584 1716 3584 
Q 2034 3584 2315 3537 
Q 2597 3491 2834 3397 
z
" transform="scale(0.015625)"/>
        <path id="DejaVuSans-69" d="M 603 3500 
L 1178 3500 
L 1178 0 
L 603 0 
L 603 3500 
z
M 603 4863 
L 1178 4863 
L 1178 4134 
L 603 4134 
L 603 4863 
z
" transform="scale(0.015625)"/>
        <path id="DejaVuSans-63" d="M 3122 3366 
L 3122 2828 
Q 2878 2963 2633 3030 
Q 2388 3097 2138 3097 
Q 1578 3097 1268 2742 
Q 959 2388 959 1747 
Q 959 1106 1268 751 
Q 1578 397 2138 397 
Q 2388 397 2633 464 
Q 2878 531 3122 666 
L 3122 134 
Q 2881 22 2623 -34 
Q 2366 -91 2075 -91 
Q 1284 -91 818 406 
Q 353 903 353 1747 
Q 353 2603 823 3093 
Q 1294 3584 2113 3584 
Q 2378 3584 2631 3529 
Q 2884 3475 3122 3366 
z
" transform="scale(0.015625)"/>
       </defs>
       <use xlink:href="#DejaVuSans-50"/>
       <use xlink:href="#DejaVuSans-68" x="60.302734"/>
       <use xlink:href="#DejaVuSans-79" x="123.681641"/>
       <use xlink:href="#DejaVuSans-73" x="182.861328"/>
       <use xlink:href="#DejaVuSans-69" x="234.960938"/>
       <use xlink:href="#DejaVuSans-63" x="262.744141"/>
       <use xlink:href="#DejaVuSans-61" x="317.724609"/>
       <use xlink:href="#DejaVuSans-6c" x="379.003906"/>
      </g>
      <!-- Demand -->
      <g transform="translate(202.093204 376.914) scale(0.16 -0.16)">
       <use xlink:href="#DejaVuSans-44"/>
       <use xlink:href="#DejaVuSans-65" x="77.001953"/>
       <use xlink:href="#DejaVuSans-6d" x="138.525391"/>
       <use xlink:href="#DejaVuSans-61" x="235.9375"/>
       <use xlink:href="#DejaVuSans-6e" x="297.216797"/>
       <use xlink:href="#DejaVuSans-64" x="360.595703"/>
      </g>
      <!--  -->
      <g transform="translate(236.019454 394.8305) scale(0.16 -0.16)"/>
     </g>
    </g>
    <g id="xtick_3">
     <g id="line2d_3">
      <g>
       <use xlink:href="#me1fc95b772" x="339.193568" y="339.84" style="stroke: #000000; stroke-width: 0.8"/>
      </g>
     </g>
     <g id="text_3">
      <!-- Temporal -->
      <g transform="translate(302.564818 358.9975) scale(0.16 -0.16)">
       <defs>
        <path id="DejaVuSans-54" d="M -19 4666 
L 3928 4666 
L 3928 4134 
L 2272 4134 
L 2272 0 
L 1638 0 
L 1638 4134 
L -19 4134 
L -19 4666 
z
" transform="scale(0.015625)"/>
        <path id="DejaVuSans-70" d="M 1159 525 
L 1159 -1331 
L 581 -1331 
L 581 3500 
L 1159 3500 
L 1159 2969 
Q 1341 3281 1617 3432 
Q 1894 3584 2278 3584 
Q 2916 3584 3314 3078 
Q 3713 2572 3713 1747 
Q 3713 922 3314 415 
Q 2916 -91 2278 -91 
Q 1894 -91 1617 61 
Q 1341 213 1159 525 
z
M 3116 1747 
Q 3116 2381 2855 2742 
Q 2594 3103 2138 3103 
Q 1681 3103 1420 2742 
Q 1159 2381 1159 1747 
Q 1159 1113 1420 752 
Q 1681 391 2138 391 
Q 2594 391 2855 752 
Q 3116 1113 3116 1747 
z
" transform="scale(0.015625)"/>
        <path id="DejaVuSans-6f" d="M 1959 3097 
Q 1497 3097 1228 2736 
Q 959 2375 959 1747 
Q 959 1119 1226 758 
Q 1494 397 1959 397 
Q 2419 397 2687 759 
Q 2956 1122 2956 1747 
Q 2956 2369 2687 2733 
Q 2419 3097 1959 3097 
z
M 1959 3584 
Q 2709 3584 3137 3096 
Q 3566 2609 3566 1747 
Q 3566 888 3137 398 
Q 2709 -91 1959 -91 
Q 1206 -91 779 398 
Q 353 888 353 1747 
Q 353 2609 779 3096 
Q 1206 3584 1959 3584 
z
" transform="scale(0.015625)"/>
        <path id="DejaVuSans-72" d="M 2631 2963 
Q 2534 3019 2420 3045 
Q 2306 3072 2169 3072 
Q 1681 3072 1420 2755 
Q 1159 2438 1159 1844 
L 1159 0 
L 581 0 
L 581 3500 
L 1159 3500 
L 1159 2956 
Q 1341 3275 1631 3429 
Q 1922 3584 2338 3584 
Q 2397 3584 2469 3576 
Q 2541 3569 2628 3553 
L 2631 2963 
z
" transform="scale(0.015625)"/>
       </defs>
       <use xlink:href="#DejaVuSans-54"/>
       <use xlink:href="#DejaVuSans-65" x="44.083984"/>
       <use xlink:href="#DejaVuSans-6d" x="105.607422"/>
       <use xlink:href="#DejaVuSans-70" x="203.019531"/>
       <use xlink:href="#DejaVuSans-6f" x="266.496094"/>
       <use xlink:href="#DejaVuSans-72" x="327.677734"/>
       <use xlink:href="#DejaVuSans-61" x="368.791016"/>
       <use xlink:href="#DejaVuSans-6c" x="430.070312"/>
      </g>
      <!-- Demand -->
      <g transform="translate(305.267318 376.914) scale(0.16 -0.16)">
       <use xlink:href="#DejaVuSans-44"/>
       <use xlink:href="#DejaVuSans-65" x="77.001953"/>
       <use xlink:href="#DejaVuSans-6d" x="138.525391"/>
       <use xlink:href="#DejaVuSans-61" x="235.9375"/>
       <use xlink:href="#DejaVuSans-6e" x="297.216797"/>
       <use xlink:href="#DejaVuSans-64" x="360.595703"/>
      </g>
      <!--  -->
      <g transform="translate(339.193568 394.8305) scale(0.16 -0.16)"/>
     </g>
    </g>
    <g id="xtick_4">
     <g id="line2d_4">
      <g>
       <use xlink:href="#me1fc95b772" x="442.367682" y="339.84" style="stroke: #000000; stroke-width: 0.8"/>
      </g>
     </g>
     <g id="text_4">
      <!-- Performance -->
      <g transform="translate(391.676432 358.9975) scale(0.16 -0.16)">
       <defs>
        <path id="DejaVuSans-66" d="M 2375 4863 
L 2375 4384 
L 1825 4384 
Q 1516 4384 1395 4259 
Q 1275 4134 1275 3809 
L 1275 3500 
L 2222 3500 
L 2222 3053 
L 1275 3053 
L 1275 0 
L 697 0 
L 697 3053 
L 147 3053 
L 147 3500 
L 697 3500 
L 697 3744 
Q 697 4328 969 4595 
Q 1241 4863 1831 4863 
L 2375 4863 
z
" transform="scale(0.015625)"/>
       </defs>
       <use xlink:href="#DejaVuSans-50"/>
       <use xlink:href="#DejaVuSans-65" x="56.677734"/>
       <use xlink:href="#DejaVuSans-72" x="118.201172"/>
       <use xlink:href="#DejaVuSans-66" x="159.314453"/>
       <use xlink:href="#DejaVuSans-6f" x="194.519531"/>
       <use xlink:href="#DejaVuSans-72" x="255.701172"/>
       <use xlink:href="#DejaVuSans-6d" x="295.064453"/>
       <use xlink:href="#DejaVuSans-61" x="392.476562"/>
       <use xlink:href="#DejaVuSans-6e" x="453.755859"/>
       <use xlink:href="#DejaVuSans-63" x="517.134766"/>
       <use xlink:href="#DejaVuSans-65" x="572.115234"/>
      </g>
     </g>
    </g>
    <g id="xtick_5">
     <g id="line2d_5">
      <g>
       <use xlink:href="#me1fc95b772" x="545.541796" y="339.84" style="stroke: #000000; stroke-width: 0.8"/>
      </g>
     </g>
     <g id="text_5">
      <!-- Effort -->
      <g transform="translate(523.534296 358.9975) scale(0.16 -0.16)">
       <defs>
        <path id="DejaVuSans-45" d="M 628 4666 
L 3578 4666 
L 3578 4134 
L 1259 4134 
L 1259 2753 
L 3481 2753 
L 3481 2222 
L 1259 2222 
L 1259 531 
L 3634 531 
L 3634 0 
L 628 0 
L 628 4666 
z
" transform="scale(0.015625)"/>
       </defs>
       <use xlink:href="#DejaVuSans-45"/>
       <use xlink:href="#DejaVuSans-66" x="63.183594"/>
       <use xlink:href="#DejaVuSans-66" x="98.388672"/>
       <use xlink:href="#DejaVuSans-6f" x="133.59375"/>
       <use xlink:href="#DejaVuSans-72" x="194.775391"/>
       <use xlink:href="#DejaVuSans-74" x="235.888672"/>
      </g>
     </g>
    </g>
    <g id="xtick_6">
     <g id="line2d_6">
      <g>
       <use xlink:href="#me1fc95b772" x="648.71591" y="339.84" style="stroke: #000000; stroke-width: 0.8"/>
      </g>
     </g>
     <g id="text_6">
      <!-- Frustration -->
      <g transform="translate(605.51716 358.9975) scale(0.16 -0.16)">
       <defs>
        <path id="DejaVuSans-46" d="M 628 4666 
L 3309 4666 
L 3309 4134 
L 1259 4134 
L 1259 2759 
L 3109 2759 
L 3109 2228 
L 1259 2228 
L 1259 0 
L 628 0 
L 628 4666 
z
" transform="scale(0.015625)"/>
        <path id="DejaVuSans-75" d="M 544 1381 
L 544 3500 
L 1119 3500 
L 1119 1403 
Q 1119 906 1312 657 
Q 1506 409 1894 409 
Q 2359 409 2629 706 
Q 2900 1003 2900 1516 
L 2900 3500 
L 3475 3500 
L 3475 0 
L 2900 0 
L 2900 538 
Q 2691 219 2414 64 
Q 2138 -91 1772 -91 
Q 1169 -91 856 284 
Q 544 659 544 1381 
z
M 1991 3584 
L 1991 3584 
z
" transform="scale(0.015625)"/>
       </defs>
       <use xlink:href="#DejaVuSans-46"/>
       <use xlink:href="#DejaVuSans-72" x="50.269531"/>
       <use xlink:href="#DejaVuSans-75" x="91.382812"/>
       <use xlink:href="#DejaVuSans-73" x="154.761719"/>
       <use xlink:href="#DejaVuSans-74" x="206.861328"/>
       <use xlink:href="#DejaVuSans-72" x="246.070312"/>
       <use xlink:href="#DejaVuSans-61" x="287.183594"/>
       <use xlink:href="#DejaVuSans-74" x="348.462891"/>
       <use xlink:href="#DejaVuSans-69" x="387.671875"/>
       <use xlink:href="#DejaVuSans-6f" x="415.455078"/>
       <use xlink:href="#DejaVuSans-6e" x="476.636719"/>
      </g>
     </g>
    </g>
    <g id="text_7">
     <!-- NASA TLX Measure -->
     <g transform="translate(305.208906 415.835188) scale(0.18 -0.18)">
      <defs>
       <path id="DejaVuSans-4e" d="M 628 4666 
L 1478 4666 
L 3547 763 
L 3547 4666 
L 4159 4666 
L 4159 0 
L 3309 0 
L 1241 3903 
L 1241 0 
L 628 0 
L 628 4666 
z
" transform="scale(0.015625)"/>
       <path id="DejaVuSans-41" d="M 2188 4044 
L 1331 1722 
L 3047 1722 
L 2188 4044 
z
M 1831 4666 
L 2547 4666 
L 4325 0 
L 3669 0 
L 3244 1197 
L 1141 1197 
L 716 0 
L 50 0 
L 1831 4666 
z
" transform="scale(0.015625)"/>
       <path id="DejaVuSans-53" d="M 3425 4513 
L 3425 3897 
Q 3066 4069 2747 4153 
Q 2428 4238 2131 4238 
Q 1616 4238 1336 4038 
Q 1056 3838 1056 3469 
Q 1056 3159 1242 3001 
Q 1428 2844 1947 2747 
L 2328 2669 
Q 3034 2534 3370 2195 
Q 3706 1856 3706 1288 
Q 3706 609 3251 259 
Q 2797 -91 1919 -91 
Q 1588 -91 1214 -16 
Q 841 59 441 206 
L 441 856 
Q 825 641 1194 531 
Q 1563 422 1919 422 
Q 2459 422 2753 634 
Q 3047 847 3047 1241 
Q 3047 1584 2836 1778 
Q 2625 1972 2144 2069 
L 1759 2144 
Q 1053 2284 737 2584 
Q 422 2884 422 3419 
Q 422 4038 858 4394 
Q 1294 4750 2059 4750 
Q 2388 4750 2728 4690 
Q 3069 4631 3425 4513 
z
" transform="scale(0.015625)"/>
       <path id="DejaVuSans-20" transform="scale(0.015625)"/>
       <path id="DejaVuSans-4c" d="M 628 4666 
L 1259 4666 
L 1259 531 
L 3531 531 
L 3531 0 
L 628 0 
L 628 4666 
z
" transform="scale(0.015625)"/>
       <path id="DejaVuSans-58" d="M 403 4666 
L 1081 4666 
L 2241 2931 
L 3406 4666 
L 4084 4666 
L 2584 2425 
L 4184 0 
L 3506 0 
L 2194 1984 
L 872 0 
L 191 0 
L 1856 2491 
L 403 4666 
z
" transform="scale(0.015625)"/>
      </defs>
      <use xlink:href="#DejaVuSans-4e"/>
      <use xlink:href="#DejaVuSans-41" x="74.804688"/>
      <use xlink:href="#DejaVuSans-53" x="143.212891"/>
      <use xlink:href="#DejaVuSans-41" x="208.564453"/>
      <use xlink:href="#DejaVuSans-20" x="276.972656"/>
      <use xlink:href="#DejaVuSans-54" x="308.759766"/>
      <use xlink:href="#DejaVuSans-4c" x="369.84375"/>
      <use xlink:href="#DejaVuSans-58" x="425.556641"/>
      <use xlink:href="#DejaVuSans-20" x="494.0625"/>
      <use xlink:href="#DejaVuSans-4d" x="525.849609"/>
      <use xlink:href="#DejaVuSans-65" x="612.128906"/>
      <use xlink:href="#DejaVuSans-61" x="673.652344"/>
      <use xlink:href="#DejaVuSans-73" x="734.931641"/>
      <use xlink:href="#DejaVuSans-75" x="787.03125"/>
      <use xlink:href="#DejaVuSans-72" x="850.410156"/>
      <use xlink:href="#DejaVuSans-65" x="889.273438"/>
     </g>
    </g>
   </g>
   <g id="matplotlib.axis_2">
    <g id="ytick_1">
     <g id="line2d_7">
      <defs>
       <path id="m1d60555d11" d="M 0 0 
L -3.5 0 
" style="stroke: #000000; stroke-width: 0.8"/>
      </defs>
      <g>
       <use xlink:href="#m1d60555d11" x="55.980625" y="339.84" style="stroke: #000000; stroke-width: 0.8"/>
      </g>
     </g>
     <g id="text_8">
      <!-- 0 -->
      <g transform="translate(38.800625 345.91875) scale(0.16 -0.16)">
       <defs>
        <path id="DejaVuSans-30" d="M 2034 4250 
Q 1547 4250 1301 3770 
Q 1056 3291 1056 2328 
Q 1056 1369 1301 889 
Q 1547 409 2034 409 
Q 2525 409 2770 889 
Q 3016 1369 3016 2328 
Q 3016 3291 2770 3770 
Q 2525 4250 2034 4250 
z
M 2034 4750 
Q 2819 4750 3233 4129 
Q 3647 3509 3647 2328 
Q 3647 1150 3233 529 
Q 2819 -91 2034 -91 
Q 1250 -91 836 529 
Q 422 1150 422 2328 
Q 422 3509 836 4129 
Q 1250 4750 2034 4750 
z
" transform="scale(0.015625)"/>
       </defs>
       <use xlink:href="#DejaVuSans-30"/>
      </g>
     </g>
    </g>
    <g id="ytick_2">
     <g id="line2d_8">
      <g>
       <use xlink:href="#m1d60555d11" x="55.980625" y="281.564972" style="stroke: #000000; stroke-width: 0.8"/>
      </g>
     </g>
     <g id="text_9">
      <!-- 2 -->
      <g transform="translate(38.800625 287.643722) scale(0.16 -0.16)">
       <defs>
        <path id="DejaVuSans-32" d="M 1228 531 
L 3431 531 
L 3431 0 
L 469 0 
L 469 531 
Q 828 903 1448 1529 
Q 2069 2156 2228 2338 
Q 2531 2678 2651 2914 
Q 2772 3150 2772 3378 
Q 2772 3750 2511 3984 
Q 2250 4219 1831 4219 
Q 1534 4219 1204 4116 
Q 875 4013 500 3803 
L 500 4441 
Q 881 4594 1212 4672 
Q 1544 4750 1819 4750 
Q 2544 4750 2975 4387 
Q 3406 4025 3406 3419 
Q 3406 3131 3298 2873 
Q 3191 2616 2906 2266 
Q 2828 2175 2409 1742 
Q 1991 1309 1228 531 
z
" transform="scale(0.015625)"/>
       </defs>
       <use xlink:href="#DejaVuSans-32"/>
      </g>
     </g>
    </g>
    <g id="ytick_3">
     <g id="line2d_9">
      <g>
       <use xlink:href="#m1d60555d11" x="55.980625" y="223.289943" style="stroke: #000000; stroke-width: 0.8"/>
      </g>
     </g>
     <g id="text_10">
      <!-- 4 -->
      <g transform="translate(38.800625 229.368693) scale(0.16 -0.16)">
       <defs>
        <path id="DejaVuSans-34" d="M 2419 4116 
L 825 1625 
L 2419 1625 
L 2419 4116 
z
M 2253 4666 
L 3047 4666 
L 3047 1625 
L 3713 1625 
L 3713 1100 
L 3047 1100 
L 3047 0 
L 2419 0 
L 2419 1100 
L 313 1100 
L 313 1709 
L 2253 4666 
z
" transform="scale(0.015625)"/>
       </defs>
       <use xlink:href="#DejaVuSans-34"/>
      </g>
     </g>
    </g>
    <g id="ytick_4">
     <g id="line2d_10">
      <g>
       <use xlink:href="#m1d60555d11" x="55.980625" y="165.014915" style="stroke: #000000; stroke-width: 0.8"/>
      </g>
     </g>
     <g id="text_11">
      <!-- 6 -->
      <g transform="translate(38.800625 171.093665) scale(0.16 -0.16)">
       <defs>
        <path id="DejaVuSans-36" d="M 2113 2584 
Q 1688 2584 1439 2293 
Q 1191 2003 1191 1497 
Q 1191 994 1439 701 
Q 1688 409 2113 409 
Q 2538 409 2786 701 
Q 3034 994 3034 1497 
Q 3034 2003 2786 2293 
Q 2538 2584 2113 2584 
z
M 3366 4563 
L 3366 3988 
Q 3128 4100 2886 4159 
Q 2644 4219 2406 4219 
Q 1781 4219 1451 3797 
Q 1122 3375 1075 2522 
Q 1259 2794 1537 2939 
Q 1816 3084 2150 3084 
Q 2853 3084 3261 2657 
Q 3669 2231 3669 1497 
Q 3669 778 3244 343 
Q 2819 -91 2113 -91 
Q 1303 -91 875 529 
Q 447 1150 447 2328 
Q 447 3434 972 4092 
Q 1497 4750 2381 4750 
Q 2619 4750 2861 4703 
Q 3103 4656 3366 4563 
z
" transform="scale(0.015625)"/>
       </defs>
       <use xlink:href="#DejaVuSans-36"/>
      </g>
     </g>
    </g>
    <g id="ytick_5">
     <g id="line2d_11">
      <g>
       <use xlink:href="#m1d60555d11" x="55.980625" y="106.739887" style="stroke: #000000; stroke-width: 0.8"/>
      </g>
     </g>
     <g id="text_12">
      <!-- 8 -->
      <g transform="translate(38.800625 112.818637) scale(0.16 -0.16)">
       <defs>
        <path id="DejaVuSans-38" d="M 2034 2216 
Q 1584 2216 1326 1975 
Q 1069 1734 1069 1313 
Q 1069 891 1326 650 
Q 1584 409 2034 409 
Q 2484 409 2743 651 
Q 3003 894 3003 1313 
Q 3003 1734 2745 1975 
Q 2488 2216 2034 2216 
z
M 1403 2484 
Q 997 2584 770 2862 
Q 544 3141 544 3541 
Q 544 4100 942 4425 
Q 1341 4750 2034 4750 
Q 2731 4750 3128 4425 
Q 3525 4100 3525 3541 
Q 3525 3141 3298 2862 
Q 3072 2584 2669 2484 
Q 3125 2378 3379 2068 
Q 3634 1759 3634 1313 
Q 3634 634 3220 271 
Q 2806 -91 2034 -91 
Q 1263 -91 848 271 
Q 434 634 434 1313 
Q 434 1759 690 2068 
Q 947 2378 1403 2484 
z
M 1172 3481 
Q 1172 3119 1398 2916 
Q 1625 2713 2034 2713 
Q 2441 2713 2670 2916 
Q 2900 3119 2900 3481 
Q 2900 3844 2670 4047 
Q 2441 4250 2034 4250 
Q 1625 4250 1398 4047 
Q 1172 3844 1172 3481 
z
" transform="scale(0.015625)"/>
       </defs>
       <use xlink:href="#DejaVuSans-38"/>
      </g>
     </g>
    </g>
    <g id="ytick_6">
     <g id="line2d_12">
      <g>
       <use xlink:href="#m1d60555d11" x="55.980625" y="48.464859" style="stroke: #000000; stroke-width: 0.8"/>
      </g>
     </g>
     <g id="text_13">
      <!-- 10 -->
      <g transform="translate(28.620625 54.543609) scale(0.16 -0.16)">
       <defs>
        <path id="DejaVuSans-31" d="M 794 531 
L 1825 531 
L 1825 4091 
L 703 3866 
L 703 4441 
L 1819 4666 
L 2450 4666 
L 2450 531 
L 3481 531 
L 3481 0 
L 794 0 
L 794 531 
z
" transform="scale(0.015625)"/>
       </defs>
       <use xlink:href="#DejaVuSans-31"/>
       <use xlink:href="#DejaVuSans-30" x="63.623047"/>
      </g>
     </g>
    </g>
    <g id="text_14">
     <!-- Subjective Rating -->
     <g transform="translate(20.877188 252.403594) rotate(-90) scale(0.18 -0.18)">
      <defs>
       <path id="DejaVuSans-62" d="M 3116 1747 
Q 3116 2381 2855 2742 
Q 2594 3103 2138 3103 
Q 1681 3103 1420 2742 
Q 1159 2381 1159 1747 
Q 1159 1113 1420 752 
Q 1681 391 2138 391 
Q 2594 391 2855 752 
Q 3116 1113 3116 1747 
z
M 1159 2969 
Q 1341 3281 1617 3432 
Q 1894 3584 2278 3584 
Q 2916 3584 3314 3078 
Q 3713 2572 3713 1747 
Q 3713 922 3314 415 
Q 2916 -91 2278 -91 
Q 1894 -91 1617 61 
Q 1341 213 1159 525 
L 1159 0 
L 581 0 
L 581 4863 
L 1159 4863 
L 1159 2969 
z
" transform="scale(0.015625)"/>
       <path id="DejaVuSans-6a" d="M 603 3500 
L 1178 3500 
L 1178 -63 
Q 1178 -731 923 -1031 
Q 669 -1331 103 -1331 
L -116 -1331 
L -116 -844 
L 38 -844 
Q 366 -844 484 -692 
Q 603 -541 603 -63 
L 603 3500 
z
M 603 4863 
L 1178 4863 
L 1178 4134 
L 603 4134 
L 603 4863 
z
" transform="scale(0.015625)"/>
       <path id="DejaVuSans-76" d="M 191 3500 
L 800 3500 
L 1894 563 
L 2988 3500 
L 3597 3500 
L 2284 0 
L 1503 0 
L 191 3500 
z
" transform="scale(0.015625)"/>
       <path id="DejaVuSans-52" d="M 2841 2188 
Q 3044 2119 3236 1894 
Q 3428 1669 3622 1275 
L 4263 0 
L 3584 0 
L 2988 1197 
Q 2756 1666 2539 1819 
Q 2322 1972 1947 1972 
L 1259 1972 
L 1259 0 
L 628 0 
L 628 4666 
L 2053 4666 
Q 2853 4666 3247 4331 
Q 3641 3997 3641 3322 
Q 3641 2881 3436 2590 
Q 3231 2300 2841 2188 
z
M 1259 4147 
L 1259 2491 
L 2053 2491 
Q 2509 2491 2742 2702 
Q 2975 2913 2975 3322 
Q 2975 3731 2742 3939 
Q 2509 4147 2053 4147 
L 1259 4147 
z
" transform="scale(0.015625)"/>
       <path id="DejaVuSans-67" d="M 2906 1791 
Q 2906 2416 2648 2759 
Q 2391 3103 1925 3103 
Q 1463 3103 1205 2759 
Q 947 2416 947 1791 
Q 947 1169 1205 825 
Q 1463 481 1925 481 
Q 2391 481 2648 825 
Q 2906 1169 2906 1791 
z
M 3481 434 
Q 3481 -459 3084 -895 
Q 2688 -1331 1869 -1331 
Q 1566 -1331 1297 -1286 
Q 1028 -1241 775 -1147 
L 775 -588 
Q 1028 -725 1275 -790 
Q 1522 -856 1778 -856 
Q 2344 -856 2625 -561 
Q 2906 -266 2906 331 
L 2906 616 
Q 2728 306 2450 153 
Q 2172 0 1784 0 
Q 1141 0 747 490 
Q 353 981 353 1791 
Q 353 2603 747 3093 
Q 1141 3584 1784 3584 
Q 2172 3584 2450 3431 
Q 2728 3278 2906 2969 
L 2906 3500 
L 3481 3500 
L 3481 434 
z
" transform="scale(0.015625)"/>
      </defs>
      <use xlink:href="#DejaVuSans-53"/>
      <use xlink:href="#DejaVuSans-75" x="63.476562"/>
      <use xlink:href="#DejaVuSans-62" x="126.855469"/>
      <use xlink:href="#DejaVuSans-6a" x="190.332031"/>
      <use xlink:href="#DejaVuSans-65" x="218.115234"/>
      <use xlink:href="#DejaVuSans-63" x="279.638672"/>
      <use xlink:href="#DejaVuSans-74" x="334.619141"/>
      <use xlink:href="#DejaVuSans-69" x="373.828125"/>
      <use xlink:href="#DejaVuSans-76" x="401.611328"/>
      <use xlink:href="#DejaVuSans-65" x="460.791016"/>
      <use xlink:href="#DejaVuSans-20" x="522.314453"/>
      <use xlink:href="#DejaVuSans-52" x="554.101562"/>
      <use xlink:href="#DejaVuSans-61" x="621.333984"/>
      <use xlink:href="#DejaVuSans-74" x="682.613281"/>
      <use xlink:href="#DejaVuSans-69" x="721.822266"/>
      <use xlink:href="#DejaVuSans-6e" x="749.605469"/>
      <use xlink:href="#DejaVuSans-67" x="812.984375"/>
     </g>
    </g>
   </g>
   <g id="LineCollection_1">
    <path d="M 101.893106 106.634733 
L 101.893106 36.915007 
" clip-path="url(#pa8cb309720)" style="fill: none; stroke: #000000; stroke-width: 1.5"/>
    <path d="M 205.06722 217.357287 
L 205.06722 147.637561 
" clip-path="url(#pa8cb309720)" style="fill: none; stroke: #000000; stroke-width: 1.5"/>
    <path d="M 308.241334 229.012292 
L 308.241334 159.292566 
" clip-path="url(#pa8cb309720)" style="fill: none; stroke: #000000; stroke-width: 1.5"/>
    <path d="M 411.415448 176.564767 
L 411.415448 106.845041 
" clip-path="url(#pa8cb309720)" style="fill: none; stroke: #000000; stroke-width: 1.5"/>
    <path d="M 514.589562 129.944744 
L 514.589562 60.225018 
" clip-path="url(#pa8cb309720)" style="fill: none; stroke: #000000; stroke-width: 1.5"/>
    <path d="M 617.763676 176.564767 
L 617.763676 106.845041 
" clip-path="url(#pa8cb309720)" style="fill: none; stroke: #000000; stroke-width: 1.5"/>
   </g>
   <g id="line2d_13">
    <defs>
     <path id="md6e9ce033e" d="M 6 0 
L -6 -0 
" style="stroke: #000000"/>
    </defs>
    <g clip-path="url(#pa8cb309720)">
     <use xlink:href="#md6e9ce033e" x="101.893106" y="106.634733" style="stroke: #000000"/>
     <use xlink:href="#md6e9ce033e" x="205.06722" y="217.357287" style="stroke: #000000"/>
     <use xlink:href="#md6e9ce033e" x="308.241334" y="229.012292" style="stroke: #000000"/>
     <use xlink:href="#md6e9ce033e" x="411.415448" y="176.564767" style="stroke: #000000"/>
     <use xlink:href="#md6e9ce033e" x="514.589562" y="129.944744" style="stroke: #000000"/>
     <use xlink:href="#md6e9ce033e" x="617.763676" y="176.564767" style="stroke: #000000"/>
    </g>
   </g>
   <g id="line2d_14">
    <g clip-path="url(#pa8cb309720)">
     <use xlink:href="#md6e9ce033e" x="101.893106" y="36.915007" style="stroke: #000000"/>
     <use xlink:href="#md6e9ce033e" x="205.06722" y="147.637561" style="stroke: #000000"/>
     <use xlink:href="#md6e9ce033e" x="308.241334" y="159.292566" style="stroke: #000000"/>
     <use xlink:href="#md6e9ce033e" x="411.415448" y="106.845041" style="stroke: #000000"/>
     <use xlink:href="#md6e9ce033e" x="514.589562" y="60.225018" style="stroke: #000000"/>
     <use xlink:href="#md6e9ce033e" x="617.763676" y="106.845041" style="stroke: #000000"/>
    </g>
   </g>
   <g id="LineCollection_2">
    <path d="M 132.84534 170.711265 
L 132.84534 101.043537 
" clip-path="url(#pa8cb309720)" style="fill: none; stroke: #000000; stroke-width: 1.5"/>
    <path d="M 236.019454 199.84878 
L 236.019454 130.181051 
" clip-path="url(#pa8cb309720)" style="fill: none; stroke: #000000; stroke-width: 1.5"/>
    <path d="M 339.193568 269.778813 
L 339.193568 200.111085 
" clip-path="url(#pa8cb309720)" style="fill: none; stroke: #000000; stroke-width: 1.5"/>
    <path d="M 442.367682 176.538768 
L 442.367682 106.871039 
" clip-path="url(#pa8cb309720)" style="fill: none; stroke: #000000; stroke-width: 1.5"/>
    <path d="M 545.541796 124.091243 
L 545.541796 54.423514 
" clip-path="url(#pa8cb309720)" style="fill: none; stroke: #000000; stroke-width: 1.5"/>
    <path d="M 648.71591 194.021277 
L 648.71591 124.353548 
" clip-path="url(#pa8cb309720)" style="fill: none; stroke: #000000; stroke-width: 1.5"/>
   </g>
   <g id="line2d_15">
    <g clip-path="url(#pa8cb309720)">
     <use xlink:href="#md6e9ce033e" x="132.84534" y="170.711265" style="stroke: #000000"/>
     <use xlink:href="#md6e9ce033e" x="236.019454" y="199.84878" style="stroke: #000000"/>
     <use xlink:href="#md6e9ce033e" x="339.193568" y="269.778813" style="stroke: #000000"/>
     <use xlink:href="#md6e9ce033e" x="442.367682" y="176.538768" style="stroke: #000000"/>
     <use xlink:href="#md6e9ce033e" x="545.541796" y="124.091243" style="stroke: #000000"/>
     <use xlink:href="#md6e9ce033e" x="648.71591" y="194.021277" style="stroke: #000000"/>
    </g>
   </g>
   <g id="line2d_16">
    <g clip-path="url(#pa8cb309720)">
     <use xlink:href="#md6e9ce033e" x="132.84534" y="101.043537" style="stroke: #000000"/>
     <use xlink:href="#md6e9ce033e" x="236.019454" y="130.181051" style="stroke: #000000"/>
     <use xlink:href="#md6e9ce033e" x="339.193568" y="200.111085" style="stroke: #000000"/>
     <use xlink:href="#md6e9ce033e" x="442.367682" y="106.871039" style="stroke: #000000"/>
     <use xlink:href="#md6e9ce033e" x="545.541796" y="54.423514" style="stroke: #000000"/>
     <use xlink:href="#md6e9ce033e" x="648.71591" y="124.353548" style="stroke: #000000"/>
    </g>
   </g>
   <g id="LineCollection_3">
    <path d="M 163.797574 128.709367 
L 163.797574 49.80539 
" clip-path="url(#pa8cb309720)" style="fill: none; stroke: #000000; stroke-width: 1.5"/>
    <path d="M 266.971688 233.604418 
L 266.971688 154.700441 
" clip-path="url(#pa8cb309720)" style="fill: none; stroke: #000000; stroke-width: 1.5"/>
    <path d="M 370.145802 262.741932 
L 370.145802 183.837955 
" clip-path="url(#pa8cb309720)" style="fill: none; stroke: #000000; stroke-width: 1.5"/>
    <path d="M 473.319916 181.156892 
L 473.319916 102.252915 
" clip-path="url(#pa8cb309720)" style="fill: none; stroke: #000000; stroke-width: 1.5"/>
    <path d="M 576.49403 134.53687 
L 576.49403 55.632893 
" clip-path="url(#pa8cb309720)" style="fill: none; stroke: #000000; stroke-width: 1.5"/>
    <path d="M 679.668144 163.674384 
L 679.668144 84.770407 
" clip-path="url(#pa8cb309720)" style="fill: none; stroke: #000000; stroke-width: 1.5"/>
   </g>
   <g id="line2d_17">
    <g clip-path="url(#pa8cb309720)">
     <use xlink:href="#md6e9ce033e" x="163.797574" y="128.709367" style="stroke: #000000"/>
     <use xlink:href="#md6e9ce033e" x="266.971688" y="233.604418" style="stroke: #000000"/>
     <use xlink:href="#md6e9ce033e" x="370.145802" y="262.741932" style="stroke: #000000"/>
     <use xlink:href="#md6e9ce033e" x="473.319916" y="181.156892" style="stroke: #000000"/>
     <use xlink:href="#md6e9ce033e" x="576.49403" y="134.53687" style="stroke: #000000"/>
     <use xlink:href="#md6e9ce033e" x="679.668144" y="163.674384" style="stroke: #000000"/>
    </g>
   </g>
   <g id="line2d_18">
    <g clip-path="url(#pa8cb309720)">
     <use xlink:href="#md6e9ce033e" x="163.797574" y="49.80539" style="stroke: #000000"/>
     <use xlink:href="#md6e9ce033e" x="266.971688" y="154.700441" style="stroke: #000000"/>
     <use xlink:href="#md6e9ce033e" x="370.145802" y="183.837955" style="stroke: #000000"/>
     <use xlink:href="#md6e9ce033e" x="473.319916" y="102.252915" style="stroke: #000000"/>
     <use xlink:href="#md6e9ce033e" x="576.49403" y="55.632893" style="stroke: #000000"/>
     <use xlink:href="#md6e9ce033e" x="679.668144" y="84.770407" style="stroke: #000000"/>
    </g>
   </g>
   <g id="patch_21">
    <path d="M 55.980625 339.84 
L 55.980625 7.2 
" style="fill: none; stroke: #000000; stroke-width: 0.8; stroke-linejoin: miter; stroke-linecap: square"/>
   </g>
   <g id="patch_22">
    <path d="M 725.580625 339.84 
L 725.580625 7.2 
" style="fill: none; stroke: #000000; stroke-width: 0.8; stroke-linejoin: miter; stroke-linecap: square"/>
   </g>
   <g id="patch_23">
    <path d="M 55.980625 339.84 
L 725.580625 339.84 
" style="fill: none; stroke: #000000; stroke-width: 0.8; stroke-linejoin: miter; stroke-linecap: square"/>
   </g>
   <g id="patch_24">
    <path d="M 55.980625 7.2 
L 725.580625 7.2 
" style="fill: none; stroke: #000000; stroke-width: 0.8; stroke-linejoin: miter; stroke-linecap: square"/>
   </g>
   <g id="legend_1">
    <g id="patch_25">
     <path d="M 204.620625 43.485 
L 576.940625 43.485 
Q 580.140625 43.485 580.140625 40.285 
L 580.140625 18.4 
Q 580.140625 15.2 576.940625 15.2 
L 204.620625 15.2 
Q 201.420625 15.2 201.420625 18.4 
L 201.420625 40.285 
Q 201.420625 43.485 204.620625 43.485 
z
" style="fill: #ffffff; opacity: 0.8; stroke: #cccccc; stroke-linejoin: miter"/>
    </g>
    <g id="patch_26">
     <path d="M 207.820625 33.7575 
L 239.820625 33.7575 
L 239.820625 22.5575 
L 207.820625 22.5575 
z
" style="fill: url(#h038c98727e); stroke: #000000; stroke-linejoin: miter"/>
    </g>
    <g id="text_15">
     <!-- Shape -->
     <g transform="translate(252.620625 33.7575) scale(0.16 -0.16)">
      <use xlink:href="#DejaVuSans-53"/>
      <use xlink:href="#DejaVuSans-68" x="63.476562"/>
      <use xlink:href="#DejaVuSans-61" x="126.855469"/>
      <use xlink:href="#DejaVuSans-70" x="188.134766"/>
      <use xlink:href="#DejaVuSans-65" x="251.611328"/>
     </g>
    </g>
    <g id="patch_27">
     <path d="M 334.725625 33.7575 
L 366.725625 33.7575 
L 366.725625 22.5575 
L 334.725625 22.5575 
z
" style="fill: url(#hba61389454); stroke: #000000; stroke-linejoin: miter"/>
    </g>
    <g id="text_16">
     <!-- Highlight -->
     <g transform="translate(379.525625 33.7575) scale(0.16 -0.16)">
      <defs>
       <path id="DejaVuSans-48" d="M 628 4666 
L 1259 4666 
L 1259 2753 
L 3553 2753 
L 3553 4666 
L 4184 4666 
L 4184 0 
L 3553 0 
L 3553 2222 
L 1259 2222 
L 1259 0 
L 628 0 
L 628 4666 
z
" transform="scale(0.015625)"/>
      </defs>
      <use xlink:href="#DejaVuSans-48"/>
      <use xlink:href="#DejaVuSans-69" x="75.195312"/>
      <use xlink:href="#DejaVuSans-67" x="102.978516"/>
      <use xlink:href="#DejaVuSans-68" x="166.455078"/>
      <use xlink:href="#DejaVuSans-6c" x="229.833984"/>
      <use xlink:href="#DejaVuSans-69" x="257.617188"/>
      <use xlink:href="#DejaVuSans-67" x="285.400391"/>
      <use xlink:href="#DejaVuSans-68" x="348.876953"/>
      <use xlink:href="#DejaVuSans-74" x="412.255859"/>
     </g>
    </g>
    <g id="patch_28">
     <path d="M 483.760625 33.7575 
L 515.760625 33.7575 
L 515.760625 22.5575 
L 483.760625 22.5575 
z
" style="fill: url(#he54bce1fc4); stroke: #000000; stroke-linejoin: miter"/>
    </g>
    <g id="text_17">
     <!-- Lasso -->
     <g transform="translate(528.560625 33.7575) scale(0.16 -0.16)">
      <use xlink:href="#DejaVuSans-4c"/>
      <use xlink:href="#DejaVuSans-61" x="55.712891"/>
      <use xlink:href="#DejaVuSans-73" x="116.992188"/>
      <use xlink:href="#DejaVuSans-73" x="169.091797"/>
      <use xlink:href="#DejaVuSans-6f" x="221.191406"/>
     </g>
    </g>
   </g>
  </g>
 </g>
 <defs>
  <clipPath id="pa8cb309720">
   <rect x="55.980625" y="7.2" width="669.6" height="332.64"/>
  </clipPath>
 </defs>
 <defs>
  <pattern id="h038c98727e" patternUnits="userSpaceOnUse" x="0" y="0" width="72" height="72">
   <rect x="0" y="0" width="73" height="73" fill="#fafafa"/>
   <path d="M -36 36 
L 36 -36 
M -24 48 
L 48 -24 
M -12 60 
L 60 -12 
M 0 72 
L 72 0 
M 12 84 
L 84 12 
M 24 96 
L 96 24 
M 36 108 
L 108 36 
" style="fill: #000000; stroke: #000000; stroke-width: 1.0; stroke-linecap: butt; stroke-linejoin: miter"/>
  </pattern>
  <pattern id="hba61389454" patternUnits="userSpaceOnUse" x="0" y="0" width="72" height="72">
   <rect x="0" y="0" width="73" height="73" fill="#c8c8c8"/>
   <path d="M 0 73.2 
C 0.318244 73.2 0.623496 73.07356 0.848528 72.848528 
C 1.07356 72.623496 1.2 72.318244 1.2 72 
C 1.2 71.681756 1.07356 71.376504 0.848528 71.151472 
C 0.623496 70.92644 0.318244 70.8 0 70.8 
C -0.318244 70.8 -0.623496 70.92644 -0.848528 71.151472 
C -1.07356 71.376504 -1.2 71.681756 -1.2 72 
C -1.2 72.318244 -1.07356 72.623496 -0.848528 72.848528 
C -0.623496 73.07356 -0.318244 73.2 0 73.2 
z
M 12 73.2 
C 12.318244 73.2 12.623496 73.07356 12.848528 72.848528 
C 13.07356 72.623496 13.2 72.318244 13.2 72 
C 13.2 71.681756 13.07356 71.376504 12.848528 71.151472 
C 12.623496 70.92644 12.318244 70.8 12 70.8 
C 11.681756 70.8 11.376504 70.92644 11.151472 71.151472 
C 10.92644 71.376504 10.8 71.681756 10.8 72 
C 10.8 72.318244 10.92644 72.623496 11.151472 72.848528 
C 11.376504 73.07356 11.681756 73.2 12 73.2 
z
M 24 73.2 
C 24.318244 73.2 24.623496 73.07356 24.848528 72.848528 
C 25.07356 72.623496 25.2 72.318244 25.2 72 
C 25.2 71.681756 25.07356 71.376504 24.848528 71.151472 
C 24.623496 70.92644 24.318244 70.8 24 70.8 
C 23.681756 70.8 23.376504 70.92644 23.151472 71.151472 
C 22.92644 71.376504 22.8 71.681756 22.8 72 
C 22.8 72.318244 22.92644 72.623496 23.151472 72.848528 
C 23.376504 73.07356 23.681756 73.2 24 73.2 
z
M 36 73.2 
C 36.318244 73.2 36.623496 73.07356 36.848528 72.848528 
C 37.07356 72.623496 37.2 72.318244 37.2 72 
C 37.2 71.681756 37.07356 71.376504 36.848528 71.151472 
C 36.623496 70.92644 36.318244 70.8 36 70.8 
C 35.681756 70.8 35.376504 70.92644 35.151472 71.151472 
C 34.92644 71.376504 34.8 71.681756 34.8 72 
C 34.8 72.318244 34.92644 72.623496 35.151472 72.848528 
C 35.376504 73.07356 35.681756 73.2 36 73.2 
z
M 48 73.2 
C 48.318244 73.2 48.623496 73.07356 48.848528 72.848528 
C 49.07356 72.623496 49.2 72.318244 49.2 72 
C 49.2 71.681756 49.07356 71.376504 48.848528 71.151472 
C 48.623496 70.92644 48.318244 70.8 48 70.8 
C 47.681756 70.8 47.376504 70.92644 47.151472 71.151472 
C 46.92644 71.376504 46.8 71.681756 46.8 72 
C 46.8 72.318244 46.92644 72.623496 47.151472 72.848528 
C 47.376504 73.07356 47.681756 73.2 48 73.2 
z
M 60 73.2 
C 60.318244 73.2 60.623496 73.07356 60.848528 72.848528 
C 61.07356 72.623496 61.2 72.318244 61.2 72 
C 61.2 71.681756 61.07356 71.376504 60.848528 71.151472 
C 60.623496 70.92644 60.318244 70.8 60 70.8 
C 59.681756 70.8 59.376504 70.92644 59.151472 71.151472 
C 58.92644 71.376504 58.8 71.681756 58.8 72 
C 58.8 72.318244 58.92644 72.623496 59.151472 72.848528 
C 59.376504 73.07356 59.681756 73.2 60 73.2 
z
M 72 73.2 
C 72.318244 73.2 72.623496 73.07356 72.848528 72.848528 
C 73.07356 72.623496 73.2 72.318244 73.2 72 
C 73.2 71.681756 73.07356 71.376504 72.848528 71.151472 
C 72.623496 70.92644 72.318244 70.8 72 70.8 
C 71.681756 70.8 71.376504 70.92644 71.151472 71.151472 
C 70.92644 71.376504 70.8 71.681756 70.8 72 
C 70.8 72.318244 70.92644 72.623496 71.151472 72.848528 
C 71.376504 73.07356 71.681756 73.2 72 73.2 
z
M 6 61.2 
C 6.318244 61.2 6.623496 61.07356 6.848528 60.848528 
C 7.07356 60.623496 7.2 60.318244 7.2 60 
C 7.2 59.681756 7.07356 59.376504 6.848528 59.151472 
C 6.623496 58.92644 6.318244 58.8 6 58.8 
C 5.681756 58.8 5.376504 58.92644 5.151472 59.151472 
C 4.92644 59.376504 4.8 59.681756 4.8 60 
C 4.8 60.318244 4.92644 60.623496 5.151472 60.848528 
C 5.376504 61.07356 5.681756 61.2 6 61.2 
z
M 18 61.2 
C 18.318244 61.2 18.623496 61.07356 18.848528 60.848528 
C 19.07356 60.623496 19.2 60.318244 19.2 60 
C 19.2 59.681756 19.07356 59.376504 18.848528 59.151472 
C 18.623496 58.92644 18.318244 58.8 18 58.8 
C 17.681756 58.8 17.376504 58.92644 17.151472 59.151472 
C 16.92644 59.376504 16.8 59.681756 16.8 60 
C 16.8 60.318244 16.92644 60.623496 17.151472 60.848528 
C 17.376504 61.07356 17.681756 61.2 18 61.2 
z
M 30 61.2 
C 30.318244 61.2 30.623496 61.07356 30.848528 60.848528 
C 31.07356 60.623496 31.2 60.318244 31.2 60 
C 31.2 59.681756 31.07356 59.376504 30.848528 59.151472 
C 30.623496 58.92644 30.318244 58.8 30 58.8 
C 29.681756 58.8 29.376504 58.92644 29.151472 59.151472 
C 28.92644 59.376504 28.8 59.681756 28.8 60 
C 28.8 60.318244 28.92644 60.623496 29.151472 60.848528 
C 29.376504 61.07356 29.681756 61.2 30 61.2 
z
M 42 61.2 
C 42.318244 61.2 42.623496 61.07356 42.848528 60.848528 
C 43.07356 60.623496 43.2 60.318244 43.2 60 
C 43.2 59.681756 43.07356 59.376504 42.848528 59.151472 
C 42.623496 58.92644 42.318244 58.8 42 58.8 
C 41.681756 58.8 41.376504 58.92644 41.151472 59.151472 
C 40.92644 59.376504 40.8 59.681756 40.8 60 
C 40.8 60.318244 40.92644 60.623496 41.151472 60.848528 
C 41.376504 61.07356 41.681756 61.2 42 61.2 
z
M 54 61.2 
C 54.318244 61.2 54.623496 61.07356 54.848528 60.848528 
C 55.07356 60.623496 55.2 60.318244 55.2 60 
C 55.2 59.681756 55.07356 59.376504 54.848528 59.151472 
C 54.623496 58.92644 54.318244 58.8 54 58.8 
C 53.681756 58.8 53.376504 58.92644 53.151472 59.151472 
C 52.92644 59.376504 52.8 59.681756 52.8 60 
C 52.8 60.318244 52.92644 60.623496 53.151472 60.848528 
C 53.376504 61.07356 53.681756 61.2 54 61.2 
z
M 66 61.2 
C 66.318244 61.2 66.623496 61.07356 66.848528 60.848528 
C 67.07356 60.623496 67.2 60.318244 67.2 60 
C 67.2 59.681756 67.07356 59.376504 66.848528 59.151472 
C 66.623496 58.92644 66.318244 58.8 66 58.8 
C 65.681756 58.8 65.376504 58.92644 65.151472 59.151472 
C 64.92644 59.376504 64.8 59.681756 64.8 60 
C 64.8 60.318244 64.92644 60.623496 65.151472 60.848528 
C 65.376504 61.07356 65.681756 61.2 66 61.2 
z
M 0 49.2 
C 0.318244 49.2 0.623496 49.07356 0.848528 48.848528 
C 1.07356 48.623496 1.2 48.318244 1.2 48 
C 1.2 47.681756 1.07356 47.376504 0.848528 47.151472 
C 0.623496 46.92644 0.318244 46.8 0 46.8 
C -0.318244 46.8 -0.623496 46.92644 -0.848528 47.151472 
C -1.07356 47.376504 -1.2 47.681756 -1.2 48 
C -1.2 48.318244 -1.07356 48.623496 -0.848528 48.848528 
C -0.623496 49.07356 -0.318244 49.2 0 49.2 
z
M 12 49.2 
C 12.318244 49.2 12.623496 49.07356 12.848528 48.848528 
C 13.07356 48.623496 13.2 48.318244 13.2 48 
C 13.2 47.681756 13.07356 47.376504 12.848528 47.151472 
C 12.623496 46.92644 12.318244 46.8 12 46.8 
C 11.681756 46.8 11.376504 46.92644 11.151472 47.151472 
C 10.92644 47.376504 10.8 47.681756 10.8 48 
C 10.8 48.318244 10.92644 48.623496 11.151472 48.848528 
C 11.376504 49.07356 11.681756 49.2 12 49.2 
z
M 24 49.2 
C 24.318244 49.2 24.623496 49.07356 24.848528 48.848528 
C 25.07356 48.623496 25.2 48.318244 25.2 48 
C 25.2 47.681756 25.07356 47.376504 24.848528 47.151472 
C 24.623496 46.92644 24.318244 46.8 24 46.8 
C 23.681756 46.8 23.376504 46.92644 23.151472 47.151472 
C 22.92644 47.376504 22.8 47.681756 22.8 48 
C 22.8 48.318244 22.92644 48.623496 23.151472 48.848528 
C 23.376504 49.07356 23.681756 49.2 24 49.2 
z
M 36 49.2 
C 36.318244 49.2 36.623496 49.07356 36.848528 48.848528 
C 37.07356 48.623496 37.2 48.318244 37.2 48 
C 37.2 47.681756 37.07356 47.376504 36.848528 47.151472 
C 36.623496 46.92644 36.318244 46.8 36 46.8 
C 35.681756 46.8 35.376504 46.92644 35.151472 47.151472 
C 34.92644 47.376504 34.8 47.681756 34.8 48 
C 34.8 48.318244 34.92644 48.623496 35.151472 48.848528 
C 35.376504 49.07356 35.681756 49.2 36 49.2 
z
M 48 49.2 
C 48.318244 49.2 48.623496 49.07356 48.848528 48.848528 
C 49.07356 48.623496 49.2 48.318244 49.2 48 
C 49.2 47.681756 49.07356 47.376504 48.848528 47.151472 
C 48.623496 46.92644 48.318244 46.8 48 46.8 
C 47.681756 46.8 47.376504 46.92644 47.151472 47.151472 
C 46.92644 47.376504 46.8 47.681756 46.8 48 
C 46.8 48.318244 46.92644 48.623496 47.151472 48.848528 
C 47.376504 49.07356 47.681756 49.2 48 49.2 
z
M 60 49.2 
C 60.318244 49.2 60.623496 49.07356 60.848528 48.848528 
C 61.07356 48.623496 61.2 48.318244 61.2 48 
C 61.2 47.681756 61.07356 47.376504 60.848528 47.151472 
C 60.623496 46.92644 60.318244 46.8 60 46.8 
C 59.681756 46.8 59.376504 46.92644 59.151472 47.151472 
C 58.92644 47.376504 58.8 47.681756 58.8 48 
C 58.8 48.318244 58.92644 48.623496 59.151472 48.848528 
C 59.376504 49.07356 59.681756 49.2 60 49.2 
z
M 72 49.2 
C 72.318244 49.2 72.623496 49.07356 72.848528 48.848528 
C 73.07356 48.623496 73.2 48.318244 73.2 48 
C 73.2 47.681756 73.07356 47.376504 72.848528 47.151472 
C 72.623496 46.92644 72.318244 46.8 72 46.8 
C 71.681756 46.8 71.376504 46.92644 71.151472 47.151472 
C 70.92644 47.376504 70.8 47.681756 70.8 48 
C 70.8 48.318244 70.92644 48.623496 71.151472 48.848528 
C 71.376504 49.07356 71.681756 49.2 72 49.2 
z
M 6 37.2 
C 6.318244 37.2 6.623496 37.07356 6.848528 36.848528 
C 7.07356 36.623496 7.2 36.318244 7.2 36 
C 7.2 35.681756 7.07356 35.376504 6.848528 35.151472 
C 6.623496 34.92644 6.318244 34.8 6 34.8 
C 5.681756 34.8 5.376504 34.92644 5.151472 35.151472 
C 4.92644 35.376504 4.8 35.681756 4.8 36 
C 4.8 36.318244 4.92644 36.623496 5.151472 36.848528 
C 5.376504 37.07356 5.681756 37.2 6 37.2 
z
M 18 37.2 
C 18.318244 37.2 18.623496 37.07356 18.848528 36.848528 
C 19.07356 36.623496 19.2 36.318244 19.2 36 
C 19.2 35.681756 19.07356 35.376504 18.848528 35.151472 
C 18.623496 34.92644 18.318244 34.8 18 34.8 
C 17.681756 34.8 17.376504 34.92644 17.151472 35.151472 
C 16.92644 35.376504 16.8 35.681756 16.8 36 
C 16.8 36.318244 16.92644 36.623496 17.151472 36.848528 
C 17.376504 37.07356 17.681756 37.2 18 37.2 
z
M 30 37.2 
C 30.318244 37.2 30.623496 37.07356 30.848528 36.848528 
C 31.07356 36.623496 31.2 36.318244 31.2 36 
C 31.2 35.681756 31.07356 35.376504 30.848528 35.151472 
C 30.623496 34.92644 30.318244 34.8 30 34.8 
C 29.681756 34.8 29.376504 34.92644 29.151472 35.151472 
C 28.92644 35.376504 28.8 35.681756 28.8 36 
C 28.8 36.318244 28.92644 36.623496 29.151472 36.848528 
C 29.376504 37.07356 29.681756 37.2 30 37.2 
z
M 42 37.2 
C 42.318244 37.2 42.623496 37.07356 42.848528 36.848528 
C 43.07356 36.623496 43.2 36.318244 43.2 36 
C 43.2 35.681756 43.07356 35.376504 42.848528 35.151472 
C 42.623496 34.92644 42.318244 34.8 42 34.8 
C 41.681756 34.8 41.376504 34.92644 41.151472 35.151472 
C 40.92644 35.376504 40.8 35.681756 40.8 36 
C 40.8 36.318244 40.92644 36.623496 41.151472 36.848528 
C 41.376504 37.07356 41.681756 37.2 42 37.2 
z
M 54 37.2 
C 54.318244 37.2 54.623496 37.07356 54.848528 36.848528 
C 55.07356 36.623496 55.2 36.318244 55.2 36 
C 55.2 35.681756 55.07356 35.376504 54.848528 35.151472 
C 54.623496 34.92644 54.318244 34.8 54 34.8 
C 53.681756 34.8 53.376504 34.92644 53.151472 35.151472 
C 52.92644 35.376504 52.8 35.681756 52.8 36 
C 52.8 36.318244 52.92644 36.623496 53.151472 36.848528 
C 53.376504 37.07356 53.681756 37.2 54 37.2 
z
M 66 37.2 
C 66.318244 37.2 66.623496 37.07356 66.848528 36.848528 
C 67.07356 36.623496 67.2 36.318244 67.2 36 
C 67.2 35.681756 67.07356 35.376504 66.848528 35.151472 
C 66.623496 34.92644 66.318244 34.8 66 34.8 
C 65.681756 34.8 65.376504 34.92644 65.151472 35.151472 
C 64.92644 35.376504 64.8 35.681756 64.8 36 
C 64.8 36.318244 64.92644 36.623496 65.151472 36.848528 
C 65.376504 37.07356 65.681756 37.2 66 37.2 
z
M 0 25.2 
C 0.318244 25.2 0.623496 25.07356 0.848528 24.848528 
C 1.07356 24.623496 1.2 24.318244 1.2 24 
C 1.2 23.681756 1.07356 23.376504 0.848528 23.151472 
C 0.623496 22.92644 0.318244 22.8 0 22.8 
C -0.318244 22.8 -0.623496 22.92644 -0.848528 23.151472 
C -1.07356 23.376504 -1.2 23.681756 -1.2 24 
C -1.2 24.318244 -1.07356 24.623496 -0.848528 24.848528 
C -0.623496 25.07356 -0.318244 25.2 0 25.2 
z
M 12 25.2 
C 12.318244 25.2 12.623496 25.07356 12.848528 24.848528 
C 13.07356 24.623496 13.2 24.318244 13.2 24 
C 13.2 23.681756 13.07356 23.376504 12.848528 23.151472 
C 12.623496 22.92644 12.318244 22.8 12 22.8 
C 11.681756 22.8 11.376504 22.92644 11.151472 23.151472 
C 10.92644 23.376504 10.8 23.681756 10.8 24 
C 10.8 24.318244 10.92644 24.623496 11.151472 24.848528 
C 11.376504 25.07356 11.681756 25.2 12 25.2 
z
M 24 25.2 
C 24.318244 25.2 24.623496 25.07356 24.848528 24.848528 
C 25.07356 24.623496 25.2 24.318244 25.2 24 
C 25.2 23.681756 25.07356 23.376504 24.848528 23.151472 
C 24.623496 22.92644 24.318244 22.8 24 22.8 
C 23.681756 22.8 23.376504 22.92644 23.151472 23.151472 
C 22.92644 23.376504 22.8 23.681756 22.8 24 
C 22.8 24.318244 22.92644 24.623496 23.151472 24.848528 
C 23.376504 25.07356 23.681756 25.2 24 25.2 
z
M 36 25.2 
C 36.318244 25.2 36.623496 25.07356 36.848528 24.848528 
C 37.07356 24.623496 37.2 24.318244 37.2 24 
C 37.2 23.681756 37.07356 23.376504 36.848528 23.151472 
C 36.623496 22.92644 36.318244 22.8 36 22.8 
C 35.681756 22.8 35.376504 22.92644 35.151472 23.151472 
C 34.92644 23.376504 34.8 23.681756 34.8 24 
C 34.8 24.318244 34.92644 24.623496 35.151472 24.848528 
C 35.376504 25.07356 35.681756 25.2 36 25.2 
z
M 48 25.2 
C 48.318244 25.2 48.623496 25.07356 48.848528 24.848528 
C 49.07356 24.623496 49.2 24.318244 49.2 24 
C 49.2 23.681756 49.07356 23.376504 48.848528 23.151472 
C 48.623496 22.92644 48.318244 22.8 48 22.8 
C 47.681756 22.8 47.376504 22.92644 47.151472 23.151472 
C 46.92644 23.376504 46.8 23.681756 46.8 24 
C 46.8 24.318244 46.92644 24.623496 47.151472 24.848528 
C 47.376504 25.07356 47.681756 25.2 48 25.2 
z
M 60 25.2 
C 60.318244 25.2 60.623496 25.07356 60.848528 24.848528 
C 61.07356 24.623496 61.2 24.318244 61.2 24 
C 61.2 23.681756 61.07356 23.376504 60.848528 23.151472 
C 60.623496 22.92644 60.318244 22.8 60 22.8 
C 59.681756 22.8 59.376504 22.92644 59.151472 23.151472 
C 58.92644 23.376504 58.8 23.681756 58.8 24 
C 58.8 24.318244 58.92644 24.623496 59.151472 24.848528 
C 59.376504 25.07356 59.681756 25.2 60 25.2 
z
M 72 25.2 
C 72.318244 25.2 72.623496 25.07356 72.848528 24.848528 
C 73.07356 24.623496 73.2 24.318244 73.2 24 
C 73.2 23.681756 73.07356 23.376504 72.848528 23.151472 
C 72.623496 22.92644 72.318244 22.8 72 22.8 
C 71.681756 22.8 71.376504 22.92644 71.151472 23.151472 
C 70.92644 23.376504 70.8 23.681756 70.8 24 
C 70.8 24.318244 70.92644 24.623496 71.151472 24.848528 
C 71.376504 25.07356 71.681756 25.2 72 25.2 
z
M 6 13.2 
C 6.318244 13.2 6.623496 13.07356 6.848528 12.848528 
C 7.07356 12.623496 7.2 12.318244 7.2 12 
C 7.2 11.681756 7.07356 11.376504 6.848528 11.151472 
C 6.623496 10.92644 6.318244 10.8 6 10.8 
C 5.681756 10.8 5.376504 10.92644 5.151472 11.151472 
C 4.92644 11.376504 4.8 11.681756 4.8 12 
C 4.8 12.318244 4.92644 12.623496 5.151472 12.848528 
C 5.376504 13.07356 5.681756 13.2 6 13.2 
z
M 18 13.2 
C 18.318244 13.2 18.623496 13.07356 18.848528 12.848528 
C 19.07356 12.623496 19.2 12.318244 19.2 12 
C 19.2 11.681756 19.07356 11.376504 18.848528 11.151472 
C 18.623496 10.92644 18.318244 10.8 18 10.8 
C 17.681756 10.8 17.376504 10.92644 17.151472 11.151472 
C 16.92644 11.376504 16.8 11.681756 16.8 12 
C 16.8 12.318244 16.92644 12.623496 17.151472 12.848528 
C 17.376504 13.07356 17.681756 13.2 18 13.2 
z
M 30 13.2 
C 30.318244 13.2 30.623496 13.07356 30.848528 12.848528 
C 31.07356 12.623496 31.2 12.318244 31.2 12 
C 31.2 11.681756 31.07356 11.376504 30.848528 11.151472 
C 30.623496 10.92644 30.318244 10.8 30 10.8 
C 29.681756 10.8 29.376504 10.92644 29.151472 11.151472 
C 28.92644 11.376504 28.8 11.681756 28.8 12 
C 28.8 12.318244 28.92644 12.623496 29.151472 12.848528 
C 29.376504 13.07356 29.681756 13.2 30 13.2 
z
M 42 13.2 
C 42.318244 13.2 42.623496 13.07356 42.848528 12.848528 
C 43.07356 12.623496 43.2 12.318244 43.2 12 
C 43.2 11.681756 43.07356 11.376504 42.848528 11.151472 
C 42.623496 10.92644 42.318244 10.8 42 10.8 
C 41.681756 10.8 41.376504 10.92644 41.151472 11.151472 
C 40.92644 11.376504 40.8 11.681756 40.8 12 
C 40.8 12.318244 40.92644 12.623496 41.151472 12.848528 
C 41.376504 13.07356 41.681756 13.2 42 13.2 
z
M 54 13.2 
C 54.318244 13.2 54.623496 13.07356 54.848528 12.848528 
C 55.07356 12.623496 55.2 12.318244 55.2 12 
C 55.2 11.681756 55.07356 11.376504 54.848528 11.151472 
C 54.623496 10.92644 54.318244 10.8 54 10.8 
C 53.681756 10.8 53.376504 10.92644 53.151472 11.151472 
C 52.92644 11.376504 52.8 11.681756 52.8 12 
C 52.8 12.318244 52.92644 12.623496 53.151472 12.848528 
C 53.376504 13.07356 53.681756 13.2 54 13.2 
z
M 66 13.2 
C 66.318244 13.2 66.623496 13.07356 66.848528 12.848528 
C 67.07356 12.623496 67.2 12.318244 67.2 12 
C 67.2 11.681756 67.07356 11.376504 66.848528 11.151472 
C 66.623496 10.92644 66.318244 10.8 66 10.8 
C 65.681756 10.8 65.376504 10.92644 65.151472 11.151472 
C 64.92644 11.376504 64.8 11.681756 64.8 12 
C 64.8 12.318244 64.92644 12.623496 65.151472 12.848528 
C 65.376504 13.07356 65.681756 13.2 66 13.2 
z
M 0 1.2 
C 0.318244 1.2 0.623496 1.07356 0.848528 0.848528 
C 1.07356 0.623496 1.2 0.318244 1.2 0 
C 1.2 -0.318244 1.07356 -0.623496 0.848528 -0.848528 
C 0.623496 -1.07356 0.318244 -1.2 0 -1.2 
C -0.318244 -1.2 -0.623496 -1.07356 -0.848528 -0.848528 
C -1.07356 -0.623496 -1.2 -0.318244 -1.2 0 
C -1.2 0.318244 -1.07356 0.623496 -0.848528 0.848528 
C -0.623496 1.07356 -0.318244 1.2 0 1.2 
z
M 12 1.2 
C 12.318244 1.2 12.623496 1.07356 12.848528 0.848528 
C 13.07356 0.623496 13.2 0.318244 13.2 0 
C 13.2 -0.318244 13.07356 -0.623496 12.848528 -0.848528 
C 12.623496 -1.07356 12.318244 -1.2 12 -1.2 
C 11.681756 -1.2 11.376504 -1.07356 11.151472 -0.848528 
C 10.92644 -0.623496 10.8 -0.318244 10.8 0 
C 10.8 0.318244 10.92644 0.623496 11.151472 0.848528 
C 11.376504 1.07356 11.681756 1.2 12 1.2 
z
M 24 1.2 
C 24.318244 1.2 24.623496 1.07356 24.848528 0.848528 
C 25.07356 0.623496 25.2 0.318244 25.2 0 
C 25.2 -0.318244 25.07356 -0.623496 24.848528 -0.848528 
C 24.623496 -1.07356 24.318244 -1.2 24 -1.2 
C 23.681756 -1.2 23.376504 -1.07356 23.151472 -0.848528 
C 22.92644 -0.623496 22.8 -0.318244 22.8 0 
C 22.8 0.318244 22.92644 0.623496 23.151472 0.848528 
C 23.376504 1.07356 23.681756 1.2 24 1.2 
z
M 36 1.2 
C 36.318244 1.2 36.623496 1.07356 36.848528 0.848528 
C 37.07356 0.623496 37.2 0.318244 37.2 0 
C 37.2 -0.318244 37.07356 -0.623496 36.848528 -0.848528 
C 36.623496 -1.07356 36.318244 -1.2 36 -1.2 
C 35.681756 -1.2 35.376504 -1.07356 35.151472 -0.848528 
C 34.92644 -0.623496 34.8 -0.318244 34.8 0 
C 34.8 0.318244 34.92644 0.623496 35.151472 0.848528 
C 35.376504 1.07356 35.681756 1.2 36 1.2 
z
M 48 1.2 
C 48.318244 1.2 48.623496 1.07356 48.848528 0.848528 
C 49.07356 0.623496 49.2 0.318244 49.2 0 
C 49.2 -0.318244 49.07356 -0.623496 48.848528 -0.848528 
C 48.623496 -1.07356 48.318244 -1.2 48 -1.2 
C 47.681756 -1.2 47.376504 -1.07356 47.151472 -0.848528 
C 46.92644 -0.623496 46.8 -0.318244 46.8 0 
C 46.8 0.318244 46.92644 0.623496 47.151472 0.848528 
C 47.376504 1.07356 47.681756 1.2 48 1.2 
z
M 60 1.2 
C 60.318244 1.2 60.623496 1.07356 60.848528 0.848528 
C 61.07356 0.623496 61.2 0.318244 61.2 0 
C 61.2 -0.318244 61.07356 -0.623496 60.848528 -0.848528 
C 60.623496 -1.07356 60.318244 -1.2 60 -1.2 
C 59.681756 -1.2 59.376504 -1.07356 59.151472 -0.848528 
C 58.92644 -0.623496 58.8 -0.318244 58.8 0 
C 58.8 0.318244 58.92644 0.623496 59.151472 0.848528 
C 59.376504 1.07356 59.681756 1.2 60 1.2 
z
M 72 1.2 
C 72.318244 1.2 72.623496 1.07356 72.848528 0.848528 
C 73.07356 0.623496 73.2 0.318244 73.2 0 
C 73.2 -0.318244 73.07356 -0.623496 72.848528 -0.848528 
C 72.623496 -1.07356 72.318244 -1.2 72 -1.2 
C 71.681756 -1.2 71.376504 -1.07356 71.151472 -0.848528 
C 70.92644 -0.623496 70.8 -0.318244 70.8 0 
C 70.8 0.318244 70.92644 0.623496 71.151472 0.848528 
C 71.376504 1.07356 71.681756 1.2 72 1.2 
z
" style="fill: #000000; stroke: #000000; stroke-width: 1.0; stroke-linecap: butt; stroke-linejoin: miter"/>
  </pattern>
  <pattern id="he54bce1fc4" patternUnits="userSpaceOnUse" x="0" y="0" width="72" height="72">
   <rect x="0" y="0" width="73" height="73" fill="#969696"/>
   <path d="M -36 36 
L 36 108 
M -30 30 
L 42 102 
M -24 24 
L 48 96 
M -18 18 
L 54 90 
M -12 12 
L 60 84 
M -6 6 
L 66 78 
M 0 0 
L 72 72 
M 6 -6 
L 78 66 
M 12 -12 
L 84 60 
M 18 -18 
L 90 54 
M 24 -24 
L 96 48 
M 30 -30 
L 102 42 
M 36 -36 
L 108 36 
" style="fill: #000000; stroke: #000000; stroke-width: 1.0; stroke-linecap: butt; stroke-linejoin: miter"/>
  </pattern>
 </defs>
</svg>
